<svg xmlns="http://www.w3.org/2000/svg" width="81" height="80" viewBox="0 0 81 80" fill="none"><path d="M20.9891 0H47.7564L70.4149 23.6398V69.5929C70.4149 75.3411 65.7559 80 60.0078 80H20.9891C15.2409 80 10.582 75.341 10.582 69.5929V10.4071C10.582 4.65897 15.2409 0 20.9891 0Z" fill="#BDBDBD"></path><path opacity="0.302" fill-rule="evenodd" clip-rule="evenodd" d="M47.7266 0V23.4457H70.4174L47.7266 0Z" fill="white"></path><path d="M20.2461 57.083V43.8395H24.9374C25.8756 43.8395 26.7493 43.9797 27.5581 44.2386C28.3669 44.5081 29.1003 44.8964 29.7582 45.4141C30.416 45.9317 30.9338 46.622 31.3112 47.4847C31.6886 48.3474 31.8828 49.3396 31.8828 50.4612C31.8828 51.5828 31.6886 52.575 31.3112 53.4377C30.9338 54.3004 30.416 54.9907 29.7582 55.5083C29.1004 56.026 28.3669 56.4142 27.5581 56.6839C26.7493 56.9428 25.8757 57.083 24.9374 57.083H20.2461ZM23.557 54.2035H24.5383C25.0668 54.2035 25.5629 54.1388 26.005 54.0201C26.458 53.8908 26.8677 53.6859 27.256 53.4162C27.6442 53.1465 27.9461 52.7584 28.1619 52.2515C28.3884 51.7554 28.4961 51.1514 28.4961 50.4612C28.4961 49.7711 28.3883 49.1671 28.1619 48.6602C27.9461 48.1641 27.6442 47.7758 27.256 47.5063C26.8677 47.2259 26.458 47.0318 26.005 46.9023C25.5629 46.7836 25.0668 46.7189 24.5383 46.7189H23.557V54.2035ZM39.9172 57.234C37.9221 57.234 36.2721 56.5869 34.9671 55.3036C33.6622 54.0201 33.0151 52.4025 33.0151 50.4613C33.0151 48.5201 33.6622 46.9024 34.9671 45.6191C36.2721 44.3357 37.9221 43.6887 39.9172 43.6887C41.88 43.6887 43.5085 44.3358 44.8134 45.6191C46.1076 46.9025 46.7547 48.5202 46.7547 50.4613C46.7547 52.4025 46.1076 54.0202 44.8134 55.3036C43.5085 56.5869 41.88 57.234 39.9172 57.234ZM37.372 53.2545C38.0299 53.9878 38.8711 54.3545 39.8956 54.3545C40.9201 54.3545 41.7505 53.9878 42.4084 53.2545C43.0663 52.5103 43.3898 51.5828 43.3898 50.4612C43.3898 49.3396 43.0663 48.4121 42.4084 47.668C41.7506 46.9347 40.9201 46.5679 39.8956 46.5679C38.8711 46.5679 38.0299 46.9347 37.372 47.668C36.7142 48.4121 36.3798 49.3396 36.3798 50.4612C36.3798 51.5828 36.7142 52.5103 37.372 53.2545ZM54.6274 57.234C52.6969 57.234 51.09 56.63 49.8175 55.4438C48.5341 54.2467 47.8979 52.5858 47.8979 50.4612C47.8979 48.3474 48.545 46.6866 49.8391 45.4895C51.1441 44.2924 52.7294 43.6885 54.6275 43.6885C56.3422 43.6885 57.7442 44.1091 58.855 44.9611C59.9551 45.8023 60.5914 46.9238 60.7531 48.3258L57.4099 49.0053C57.2697 48.2719 56.9353 47.6788 56.4177 47.2366C55.9001 46.7944 55.2961 46.5679 54.6058 46.5679C53.6568 46.5679 52.8695 46.9023 52.2332 47.5817C51.5969 48.2718 51.2733 49.2209 51.2733 50.4611C51.2733 51.7014 51.5969 52.6504 52.2224 53.3299C52.8587 54.02 53.646 54.3544 54.6057 54.3544C55.2959 54.3544 55.8891 54.1603 56.3744 53.7721C56.8597 53.3838 57.1617 52.8662 57.2911 52.2191L60.7098 52.9956C60.3971 54.3329 59.7068 55.3682 58.6284 56.1123C57.5608 56.8565 56.2235 57.234 54.6274 57.234Z" fill="white"></path></svg>