<svg xmlns="http://www.w3.org/2000/svg" width="36" height="36" viewBox="0 0 36 36" fill="none"><path d="M18.0003 0C8.06412 0 0 8.064 0 18C0 27.936 8.06412 36 18.0003 36C27.9364 36 36.0005 27.936 36.0005 18C36.0005 8.064 27.9364 0 18.0003 0ZM14.4002 24.3V11.7C14.4002 10.962 15.2462 10.53 15.8402 10.98L24.2464 17.28C24.7324 17.64 24.7324 18.36 24.2464 18.72L15.8402 25.02C15.2462 25.47 14.4002 25.038 14.4002 24.3Z" fill="white"></path><path d="M14.3984 24.3001V11.7001C14.3984 10.9621 15.2444 10.5301 15.8385 10.9801L24.2446 17.2801C24.7306 17.6401 24.7306 18.3601 24.2446 18.7201L15.8385 25.0201C15.2444 25.4701 14.3984 25.0381 14.3984 24.3001Z" fill="#121212"></path><path d="M14.3984 24.3001V11.7001C14.3984 10.9621 15.2444 10.5301 15.8385 10.9801L24.2446 17.2801C24.7306 17.6401 24.7306 18.3601 24.2446 18.7201L15.8385 25.0201C15.2444 25.4701 14.3984 25.0381 14.3984 24.3001Z" fill="#121212"></path></svg>