<svg width="18" height="18" viewBox="0 0 18 18" fill="none" xmlns="http://www.w3.org/2000/svg">
<path d="M7.54227 12.7423L14.35 5.92433L13.4551 5.02948L7.54227 10.9526L4.62817 8.04488L3.73333 8.93972L7.54227 12.7423ZM2.0641 17.5C1.63333 17.5 1.26496 17.347 0.958975 17.041C0.652992 16.735 0.5 16.3666 0.5 15.9358V2.0641C0.5 1.63333 0.652992 1.26496 0.958975 0.958975C1.26496 0.652992 1.63333 0.5 2.0641 0.5H15.9358C16.3666 0.5 16.735 0.652992 17.041 0.958975C17.347 1.26496 17.5 1.63333 17.5 2.0641V15.9358C17.5 16.3666 17.347 16.735 17.041 17.041C16.735 17.347 16.3666 17.5 15.9358 17.5H2.0641Z" fill="black"/>
</svg>
