<svg width="25" height="32" viewBox="0 0 25 32" fill="none" xmlns="http://www.w3.org/2000/svg">
<path d="M12.25 0C5.49531 0 0 5.49531 0 12.25C0 14.4121 0.57125 16.5378 1.65194 18.3972C1.90387 18.8307 2.1855 19.2531 2.48912 19.6528L11.7177 32H12.7822L22.0109 19.6529C22.3144 19.2531 22.5961 18.8307 22.8481 18.3972C23.9287 16.5378 24.5 14.4121 24.5 12.25C24.5 5.49531 19.0047 0 12.25 0ZM12.25 16.3125C10.0099 16.3125 8.1875 14.4901 8.1875 12.25C8.1875 10.0099 10.0099 8.1875 12.25 8.1875C14.4901 8.1875 16.3125 10.0099 16.3125 12.25C16.3125 14.4901 14.4901 16.3125 12.25 16.3125Z" fill="black"/>
</svg>
