<?xml version="1.0" encoding="UTF-8"?>
<svg xmlns="http://www.w3.org/2000/svg" width="32" height="32" viewBox="0 0 32 32" fill="none">
  <g clip-path="url(#clip0_297_5511)">
    <path d="M28.3269 15.0761C28.3269 13.8654 27.9502 12.7115 27.2373 11.7377L22.6702 4.95775L20.5773 8.06463L15.1446 0.000244141L5.89232 13.7348C4.43763 15.7145 3.66895 18.0616 3.66895 20.5246C3.66895 26.8523 8.81689 32.0002 15.1446 32.0002C21.4723 32.0002 26.6202 26.8523 26.6202 20.5246C26.6202 20.0802 26.594 19.635 26.5431 19.1951C27.6405 18.1627 28.3269 16.6982 28.3269 15.0761ZM15.1446 30.1136C9.85714 30.1136 5.55557 25.812 5.55557 20.5246C5.55557 18.4595 6.20208 16.4921 7.42514 14.8351L7.47414 14.7683L7.48327 14.75L15.1446 3.377L19.4399 9.75308L18.1029 11.7378C17.39 12.7116 17.0133 13.8655 17.0133 15.0762C17.0133 18.1954 19.551 20.733 22.6702 20.733C23.3973 20.733 24.0927 20.5949 24.7319 20.344C24.7329 20.4042 24.7337 20.4644 24.7337 20.5246C24.7337 25.812 20.432 30.1136 15.1446 30.1136ZM22.6702 18.8463C20.5913 18.8463 18.9 17.155 18.9 15.0761C18.9 14.2638 19.1541 13.4903 19.6347 12.8395L19.6834 12.7732L19.6926 12.7549L22.6702 8.33464L25.6477 12.7548L25.6572 12.7738L25.7057 12.8394C26.1863 13.4903 26.4404 14.2637 26.4404 15.0761C26.4404 17.1551 24.7491 18.8463 22.6702 18.8463Z" fill="#BDBDBD"></path>
  </g>
  <defs>
    <clipPath id="clip0_297_5511">
      <rect width="32" height="32" fill="white" transform="translate(0 0.000244141)"></rect>
    </clipPath>
  </defs>
</svg>
