<?xml version="1.0" encoding="UTF-8"?>
<svg xmlns="http://www.w3.org/2000/svg" width="32" height="32" viewBox="0 0 32 32" fill="none">
  <g clip-path="url(#clip0_297_5485)">
    <path d="M30.342 23.6589L29.9323 21.7879L27.6738 22.2824L25.1164 20.6437L28.15 19.9795L27.7403 18.1085L22.8358 19.1823L20.7886 17.8706V14.126L22.831 12.8002L27.7419 13.8451L28.1405 11.9717L25.103 11.3254L27.6507 9.67163L29.9121 10.1528L30.3107 8.27936L28.598 7.91493L28.9623 6.20222L27.0889 5.80364L26.6077 8.06509L24.0601 9.71887L24.7064 6.68144L22.8329 6.28286L21.7881 11.1937L19.769 12.5044L16.9577 11.0988V8.73553L20.5079 5.1853L19.1536 3.83095L16.9577 6.02684V2.98947L18.5925 1.35459L17.2383 0.000244141L16.0001 1.23839L14.7619 0.000244141L13.4076 1.35459L15.0424 2.98947V6.02684L12.8465 3.83095L11.4922 5.1853L15.0424 8.73553V11.0988L12.2278 12.5061L10.1978 11.2054L9.12393 6.3008L7.25289 6.71043L7.91707 9.74397L5.35969 8.10532L4.86514 5.8468L2.99423 6.25643L3.36874 7.96696L1.6582 8.34148L2.06783 10.2125L4.32635 9.71805L6.88373 11.3567L3.8502 12.0209L4.25989 13.8919L9.16441 12.8181L11.2116 14.1299V17.8744L9.16913 19.2003L4.25823 18.1554L3.85965 20.0288L6.89708 20.6751L4.34953 22.3288L2.08814 21.8477L1.68955 23.7211L3.40226 24.0855L3.0379 25.7982L4.91137 26.1968L5.3925 23.9353L7.94011 22.2815L7.29387 25.319L9.16728 25.7176L10.2121 20.8067L12.2313 19.4961L15.0425 20.9017V23.265L11.4922 26.8152L12.8465 28.1695L15.0424 25.9737V29.0111L13.4076 30.6459L14.7619 32.0002L16.0001 30.7621L17.2383 32.0002L18.5926 30.6459L16.9578 29.011V25.9737L19.1536 28.1695L20.508 26.8152L16.9578 23.265V20.9017L19.7723 19.4944L21.8024 20.7952L22.8762 25.6998L24.7473 25.2901L24.0831 22.2566L26.6405 23.8952L27.135 26.1538L29.0061 25.7441L28.6315 24.0335L30.342 23.6589ZM18.8731 17.8026L16.0001 19.2391L13.127 17.8026V14.1979L16.0001 12.7614L18.8731 14.1979V17.8026Z" fill="#BDBDBD"></path>
  </g>
  <defs>
    <clipPath id="clip0_297_5485">
      <rect width="32" height="32" fill="white" transform="translate(0 0.000244141)"></rect>
    </clipPath>
  </defs>
</svg>
