<svg xmlns="http://www.w3.org/2000/svg" width="32" height="33" fill="none"><path d="M27.48 20.484 23.47 17.85a.477.477 0 0 0-.523.796l3.313 2.178-13.896 4.935L2.454 19.2 8.12 17.14a.476.476 0 1 0-.326-.895l-6.562 2.388a.475.475 0 0 0-.29.588v2.83c0 .056.01.109.028.159.003.15.078.297.213.387l10.854 7.181c.081.053.173.08.263.08a.478.478 0 0 0 .265-.085l14.951-5.31a.475.475 0 0 0 .312-.392.472.472 0 0 0 .041-.193v-2.925a.477.477 0 0 0-.39-.468Zm-25.586-.51 9.93 6.57v1.95l-9.93-6.57v-1.95Zm10.883 6.65 14.14-5.022v2.062l-14.14 5.021v-2.061Z" fill="#828282"></path><path d="M30.845 10.567a.476.476 0 0 0-.39-.468L19.71 2.985c-.008-.005-.018-.008-.026-.014l-.045-.023a.488.488 0 0 0-.134-.036l-.044-.004a.512.512 0 0 0-.142.019c-.01.003-.02.003-.03.007L4.213 8.24a.476.476 0 0 0-.295.593v2.828c0 .054.011.105.028.153.002.152.077.301.213.391L15.01 19.39c.081.053.172.08.263.08a.475.475 0 0 0 .266-.086l14.951-5.306a.474.474 0 0 0 .311-.39.474.474 0 0 0 .044-.197v-2.924ZM19.38 3.91l9.859 6.526-13.902 4.934L5.44 8.818l13.942-4.907ZM4.87 9.584l9.927 6.572v1.95L4.87 11.534v-1.95Zm10.88 6.652 14.142-5.02v2.062l-14.142 5.02v-2.062Z" fill="#828282"></path></svg>