<svg xmlns="http://www.w3.org/2000/svg" width="36" height="37" fill="none"><path d="m22.722 14.478-6.047 6.773-3.068-3.068a.537.537 0 1 0-.76.76l3.47 3.47c.1.101.238.157.38.157h.015a.537.537 0 0 0 .386-.18l6.426-7.196a.537.537 0 1 0-.802-.716Z" fill="#828282"></path><path d="M32.982 18.41a.532.532 0 0 0 .017-.127c0-1.432-1.485-2.172-2.796-2.825-.93-.464-1.893-.943-2.149-1.548-.26-.616.108-1.622.463-2.594.496-1.355 1.008-2.756.063-3.7-.927-.928-2.283-.614-3.594-.31-.918.214-1.868.433-2.5.166-.617-.261-1.13-1.07-1.626-1.854-.72-1.136-1.535-2.423-2.95-2.423-1.416 0-2.216 1.315-2.92 2.476-.49.806-.996 1.638-1.613 1.899-.63.267-1.59.025-2.517-.208-1.322-.332-2.689-.677-3.618.254-.939.938-.484 2.346-.043 3.709.314.971.64 1.977.376 2.599-.256.607-1.175 1.082-2.065 1.542-1.26.651-2.688 1.39-2.688 2.818a.54.54 0 0 0 .017.128.53.53 0 0 0-.016.128c0 1.428 1.428 2.167 2.688 2.818.889.46 1.808.935 2.065 1.542.263.622-.062 1.627-.377 2.6-.44 1.361-.895 2.769.043 3.708.93.93 2.297.587 3.618.254.928-.233 1.888-.474 2.518-.208.616.26 1.122 1.093 1.612 1.898.705 1.16 1.504 2.476 2.921 2.476 1.415 0 2.23-1.287 2.95-2.422.496-.784 1.009-1.594 1.625-1.855.634-.268 1.582-.048 2.5.165 1.31.304 2.667.62 3.593-.308.946-.945.434-2.346-.062-3.7-.356-.973-.724-1.979-.463-2.595.256-.604 1.218-1.084 2.149-1.547 1.31-.654 2.796-1.394 2.796-2.826a.523.523 0 0 0-.017-.13Zm-3.258 1.992c-1.105.55-2.248 1.12-2.66 2.091-.425 1.007.017 2.215.444 3.382.397 1.086.772 2.112.311 2.572-.505.506-1.518.27-2.59.022-1.085-.252-2.207-.512-3.162-.108-.926.391-1.53 1.346-2.114 2.268-.627.99-1.219 1.923-2.042 1.923-.813 0-1.39-.951-2.003-1.959-.578-.95-1.176-1.934-2.112-2.33-.961-.407-2.098-.121-3.198.156-1.079.27-2.097.527-2.596.028-.474-.474-.137-1.515.22-2.618.374-1.16.761-2.358.343-3.349-.408-.964-1.502-1.53-2.56-2.078-1.084-.56-2.108-1.089-2.108-1.864a.545.545 0 0 0-.017-.128.531.531 0 0 0 .017-.127c0-.775 1.023-1.304 2.107-1.864 1.058-.547 2.153-1.113 2.56-2.078.42-.991.032-2.19-.343-3.349-.357-1.102-.694-2.144-.219-2.618.498-.5 1.516-.243 2.595.029 1.1.276 2.237.563 3.199.155.935-.395 1.533-1.379 2.112-2.33.612-1.008 1.19-1.96 2.003-1.96.823 0 1.415.935 2.04 1.924.586.922 1.19 1.877 2.116 2.269.955.404 2.077.143 3.162-.109 1.072-.248 2.085-.483 2.59.023.46.46.085 1.485-.311 2.571-.427 1.168-.87 2.376-.444 3.382.411.971 1.554 1.54 2.66 2.091 1.131.564 2.2 1.097 2.2 1.864 0 .044.008.087.018.128a.532.532 0 0 0-.017.127c0 .768-1.07 1.3-2.201 1.864Z" fill="#828282"></path></svg>