<svg xmlns="http://www.w3.org/2000/svg" width="77" height="78" viewBox="0 0 77 78" fill="none"><path d="M20.5228 62.3323C8.81081 62.3323 3.88281 51.9643 3.88281 39.4203C3.88281 26.8763 8.81081 16.4443 20.5228 16.4443C32.2348 16.4443 37.2268 26.8763 37.2268 39.4203C37.2268 51.9643 32.2348 62.3323 20.5228 62.3323ZM20.5228 58.2363C29.2908 58.2363 32.3628 49.4683 32.3628 39.4203C32.3628 29.3083 29.2908 20.5403 20.5228 20.5403C11.8188 20.5403 8.74681 29.3083 8.74681 39.4203C8.74681 49.4683 11.8188 58.2363 20.5228 58.2363Z" fill="currentColor"></path><path d="M68.0898 61.5003H63.4818V50.7483H41.8498V46.6523L63.4818 17.2763H68.0898V46.6523H74.3618V50.7483H68.0898V61.5003ZM63.4818 23.8683L46.6498 46.6523H63.4818V23.8683Z" fill="currentColor"></path></svg>