<svg xmlns="http://www.w3.org/2000/svg" width="77" height="78" viewBox="0 0 77 78" fill="none"><path d="M28.5853 62.3323C16.8733 62.3323 11.9453 51.9643 11.9453 39.4203C11.9453 26.8763 16.8733 16.4443 28.5853 16.4443C40.2973 16.4443 45.2893 26.8763 45.2893 39.4203C45.2893 51.9643 40.2973 62.3323 28.5853 62.3323ZM28.5853 58.2363C37.3533 58.2363 40.4253 49.4683 40.4253 39.4203C40.4253 29.3083 37.3533 20.5403 28.5853 20.5403C19.8813 20.5403 16.8093 29.3083 16.8093 39.4203C16.8093 49.4683 19.8813 58.2363 28.5853 58.2363Z" fill="currentColor"></path><path d="M58.2963 61.5003V26.6203C56.1843 28.8603 53.0483 29.1803 49.0803 29.1803V25.2763C56.8243 25.0843 58.6803 22.6523 59.1923 17.2763H62.9043V61.5003H58.2963Z" fill="currentColor"></path></svg>