<svg xmlns="http://www.w3.org/2000/svg" width="34" height="35" fill="none"><path fill="#828282" d="M17 21.128V6.434a1.684 1.684 0 0 0-1.684-1.684H5.934A1.684 1.684 0 0 0 4.25 6.434v14.694a1.684 1.684 0 0 0 1.684 1.684h9.382A1.684 1.684 0 0 0 17 21.128Zm-11.688 0V6.434a.622.622 0 0 1 .622-.622h9.382a.621.621 0 0 1 .621.622v14.694a.622.622 0 0 1-.621.622H5.934a.622.622 0 0 1-.622-.622Z"></path><path fill="#828282" d="M19.61 26.844a1.727 1.727 0 0 0 1.662-1.277l3.87-14.442a1.72 1.72 0 0 0-1.214-2.107L18.69 7.565a.532.532 0 0 0-.284 1.026l5.236 1.45a.67.67 0 0 1 .4.308.656.656 0 0 1 .075.51l-3.87 14.434a.644.644 0 0 1-.308.399.657.657 0 0 1-.5.066l-7.644-2.048a.53.53 0 1 0-.266 1.025l7.634 2.062c.146.035.296.05.446.047Z"></path><path fill="#828282" d="m30.434 16.012-4.271-2.465a.531.531 0 0 0-.531.919l4.271 2.468a.634.634 0 0 1 .234.868l-7.334 12.713a.637.637 0 0 1-.869.234l-6.906-3.985a.532.532 0 0 0-.531.922l6.906 3.984a1.7 1.7 0 0 0 2.322-.624l7.33-12.7a1.7 1.7 0 0 0-.62-2.334Z"></path></svg>