<svg xmlns="http://www.w3.org/2000/svg" width="29" height="29" fill="none"><g clip-path="url(#a)" fill="#828282"><path d="M.453 29a.453.453 0 0 1-.438-.569l1.797-6.78V.452A.453.453 0 0 1 2.265 0h26.281A.453.453 0 0 1 29 .453v26.281a.453.453 0 0 1-.453.453H7.27l-6.7 1.797A.419.419 0 0 1 .453 29ZM2.718.906V21.71a.41.41 0 0 1-.016.118l-1.61 6.079 5.999-1.609a.423.423 0 0 1 .118-.016h20.884V.906H2.718Z"></path><path d="M9.516 21.297a.452.452 0 0 1-.453-.453v-5.89H5.89a.453.453 0 0 1-.454-.454V7.25a.453.453 0 0 1 .454-.453h7.703a.453.453 0 0 1 .453.453v7.25a.454.454 0 0 1-.073.245l-4.078 6.343a.452.452 0 0 1-.38.209Zm-3.172-7.25h3.172a.453.453 0 0 1 .453.453v4.8l3.172-4.934V7.703H6.344v6.344ZM20.844 21.297a.452.452 0 0 1-.453-.453v-5.89h-3.172a.453.453 0 0 1-.453-.454V7.25a.453.453 0 0 1 .453-.453h7.703a.453.453 0 0 1 .453.453v7.25a.453.453 0 0 1-.073.245l-4.078 6.343a.453.453 0 0 1-.38.209Zm-3.172-7.25h3.172a.453.453 0 0 1 .453.453v4.8l3.172-4.934V7.703h-6.797v6.344Z"></path></g><defs><clipPath id="a"><path fill="#fff" d="M0 0h29v29H0z"></path></clipPath></defs></svg>