<svg xmlns="http://www.w3.org/2000/svg" width="77" height="78" viewBox="0 0 77 78" fill="none"><path d="M20.8978 62.3323C9.18581 62.3323 4.25781 51.9643 4.25781 39.4203C4.25781 26.8763 9.18581 16.4443 20.8978 16.4443C32.6098 16.4443 37.6018 26.8763 37.6018 39.4203C37.6018 51.9643 32.6098 62.3323 20.8978 62.3323ZM20.8978 58.2363C29.6658 58.2363 32.7378 49.4683 32.7378 39.4203C32.7378 29.3083 29.6658 20.5403 20.8978 20.5403C12.1938 20.5403 9.12181 29.3083 9.12181 39.4203C9.12181 49.4683 12.1938 58.2363 20.8978 58.2363Z" fill="currentColor"></path><path d="M72.5608 61.5003H42.6088C42.6088 53.3083 47.6648 47.2283 55.6648 42.7483C63.7288 38.1403 68.1448 36.2203 68.1448 29.5003C68.1448 25.1483 66.0328 20.5403 59.2488 20.5403C51.5688 20.5403 48.6888 25.9163 48.6888 32.1883H43.8888C43.8888 23.6123 48.8808 16.4443 59.3128 16.4443C66.8648 16.4443 73.0088 21.1803 73.0088 29.4363C73.0088 37.8203 66.4168 41.6603 59.9528 45.3083C54.5768 48.3803 49.0088 51.3883 48.1768 57.2763V57.4043H72.5608V61.5003Z" fill="currentColor"></path></svg>