<svg xmlns="http://www.w3.org/2000/svg" width="77" height="78" viewBox="0 0 77 78" fill="none"><path d="M19.6478 62.3323C7.93581 62.3323 3.00781 51.9643 3.00781 39.4203C3.00781 26.8763 7.93581 16.4443 19.6478 16.4443C31.3598 16.4443 36.3518 26.8763 36.3518 39.4203C36.3518 51.9643 31.3598 62.3323 19.6478 62.3323ZM19.6478 58.2363C28.4158 58.2363 31.4878 49.4683 31.4878 39.4203C31.4878 29.3083 28.4158 20.5403 19.6478 20.5403C10.9438 20.5403 7.87181 29.3083 7.87181 39.4203C7.87181 49.4683 10.9438 58.2363 19.6478 58.2363Z" fill="currentColor"></path><path d="M58.7028 62.3323C47.9508 62.3323 41.6788 56.5083 41.6788 46.7163H46.5428C46.5428 53.5003 49.8708 58.2363 58.3828 58.2363C66.0628 58.2363 69.1348 54.7803 69.1348 49.2763C69.1348 42.5563 64.0148 40.4443 59.4708 40.4443H54.7348V36.3483H59.2148C64.0148 36.3483 67.4708 33.7243 67.4708 28.4123C67.4708 24.4443 64.9748 20.5403 58.6388 20.5403C49.7428 20.5403 47.7588 25.5963 47.7588 30.3323H42.8948C42.8948 22.3963 48.0788 16.4443 58.6388 16.4443C65.8708 16.4443 72.3348 20.7963 72.3348 28.4123C72.3348 33.3403 69.9028 36.2843 65.4228 38.0763V38.2043C71.3748 40.0603 73.9988 44.0283 73.9988 49.2763C73.9988 57.5963 67.8548 62.3323 58.7028 62.3323Z" fill="currentColor"></path></svg>