<svg xmlns="http://www.w3.org/2000/svg" width="17" height="18" viewBox="0 0 17 18" fill="none"><path fill-rule="evenodd" clip-rule="evenodd" d="M5.35435 9.46792L4.80185 11.1254C4.72666 11.3444 4.71469 11.5802 4.7673 11.8057C4.81992 12.0312 4.935 12.2373 5.09935 12.4004C5.26293 12.5641 5.46904 12.6787 5.69437 12.7312C5.91969 12.7838 6.15524 12.7723 6.37435 12.6979L8.03893 12.1454C8.11588 12.1184 8.18599 12.0749 8.24435 12.0179L15.7527 4.5025C15.9841 4.27018 16.114 3.95562 16.114 3.62771C16.114 3.2998 15.9841 2.98524 15.7527 2.75292L14.7468 1.74709C14.5145 1.51567 14.2 1.38574 13.8721 1.38574C13.5441 1.38574 13.2296 1.51567 12.9973 1.74709L5.48185 9.2625C5.42489 9.32087 5.38137 9.39097 5.35435 9.46792ZM13.7481 2.49792C13.782 2.46706 13.8262 2.44996 13.8721 2.44996C13.9179 2.44996 13.9621 2.46706 13.996 2.49792L15.0019 3.50375C15.0327 3.53766 15.0498 3.58186 15.0498 3.62771C15.0498 3.67356 15.0327 3.71776 15.0019 3.75167L13.8756 4.87792L12.6218 3.62417L13.7481 2.49792ZM5.80768 11.4654L6.32477 9.92125L11.871 4.375L13.1248 5.62875L7.57852 11.175L6.03435 11.6921C6.00272 11.7035 5.9685 11.7057 5.93568 11.6983C5.90287 11.691 5.87282 11.6745 5.84904 11.6507C5.82527 11.627 5.80875 11.5969 5.80143 11.5641C5.7941 11.5313 5.79627 11.497 5.80768 11.4654ZM16.1139 7.93083V13.9588C16.1139 14.6632 15.8341 15.3389 15.3359 15.837C14.8378 16.3351 14.1622 16.615 13.4577 16.615H3.54102C2.83653 16.615 2.16091 16.3351 1.66276 15.837C1.16462 15.3389 0.884766 14.6632 0.884766 13.9588V4.04209C0.884766 3.3376 1.16462 2.66198 1.66276 2.16383C2.16091 1.66569 2.83653 1.38583 3.54102 1.38583H9.56893V2.44834H3.54102C3.11833 2.44834 2.71295 2.61625 2.41406 2.91513C2.11518 3.21402 1.94727 3.6194 1.94727 4.04209V13.9588C1.94727 14.3814 2.11518 14.7868 2.41406 15.0857C2.71295 15.3846 3.11833 15.5525 3.54102 15.5525H13.4577C13.8804 15.5525 14.2857 15.3846 14.5846 15.0857C14.8835 14.7868 15.0514 14.3814 15.0514 13.9588V7.93083H16.1139Z" fill="currentColor"></path></svg>