<svg xmlns="http://www.w3.org/2000/svg" width="89" height="32" fill="none"><path d="M1.985 2.913c0 .533.13 1.008.389 1.425.273.403.604.755.993 1.057.403.302.942.662 1.618 1.08.734.46 1.31.855 1.727 1.186.431.331.791.741 1.079 1.23.302.475.453 1.036.453 1.684 0 .734-.194 1.388-.583 1.964-.374.575-.913 1.029-1.618 1.36-.69.316-1.482.474-2.374.474-.604 0-1.23-.079-1.878-.237-.633-.158-1.115-.353-1.446-.583-.13-.086-.201-.223-.216-.41L0 9.863V9.84c0-.057.036-.086.108-.086.072-.015.115.007.13.065.474 1.194 1.014 2.172 1.618 2.935.619.762 1.403 1.143 2.352 1.143.619 0 1.137-.165 1.554-.496.417-.345.626-.914.626-1.705 0-.633-.144-1.187-.432-1.662a3.934 3.934 0 0 0-1.035-1.187 24.307 24.307 0 0 0-1.662-1.165A23.62 23.62 0 0 1 1.64 6.561a4.482 4.482 0 0 1-.993-1.144c-.273-.46-.41-.993-.41-1.597 0-.748.209-1.381.626-1.9A3.66 3.66 0 0 1 2.482.778 5.864 5.864 0 0 1 4.597.388c.489 0 .978.05 1.467.152.49.086.9.201 1.23.345.13.043.216.1.26.172a.388.388 0 0 1 .064.238l.065 2.935c0 .043-.043.08-.13.108-.071.014-.115-.007-.129-.065A9.12 9.12 0 0 0 6.259 1.9C5.784 1.18 5.064.82 4.1.82c-.647 0-1.165.187-1.553.561-.374.374-.562.885-.562 1.532ZM13.938 1.08c-.878 0-1.604.272-2.18.82-.56.532-.992 1.344-1.294 2.438 0 .029-.044.043-.13.043-.072 0-.108-.022-.108-.065.058-.56.122-1.28.194-2.158a27.36 27.36 0 0 0 .108-2.007c0-.072.036-.108.108-.108.086 0 .13.036.13.108 0 .317.402.475 1.208.475 1.237.043 2.684.065 4.338.065.849 0 1.748-.015 2.698-.044l1.467-.021c.547 0 .943-.036 1.187-.108.26-.072.425-.216.497-.432.014-.057.057-.086.13-.086.071 0 .107.029.107.086a45.774 45.774 0 0 0-.13 2.029c-.043.906-.064 1.64-.064 2.201 0 .043-.043.065-.13.065-.072 0-.115-.022-.13-.065-.143-1.108-.481-1.92-1.014-2.438-.532-.533-1.251-.799-2.158-.799-.402 0-.705.036-.906.108a.649.649 0 0 0-.389.388c-.057.173-.086.454-.086.842v9.95c0 .445.043.769.13.97.086.202.259.338.518.41.258.072.669.108 1.23.108.043 0 .065.043.065.13 0 .086-.022.13-.065.13-.504 0-.9-.008-1.187-.022l-1.77-.022-1.683.022c-.302.014-.72.021-1.252.021-.029 0-.043-.043-.043-.13 0-.086.014-.129.043-.129.561 0 .971-.036 1.23-.108.274-.072.453-.208.54-.41.1-.216.15-.54.15-.97V2.373c0-.374-.035-.647-.107-.82a.653.653 0 0 0-.389-.367c-.187-.072-.474-.108-.863-.108ZM30.75 14.373c-1.337 0-2.532-.31-3.582-.928a6.63 6.63 0 0 1-2.417-2.546 7.511 7.511 0 0 1-.842-3.518c0-1.482.374-2.748 1.123-3.798a7.018 7.018 0 0 1 2.87-2.396c1.18-.532 2.381-.799 3.604-.799 1.367 0 2.568.324 3.604.972a6.355 6.355 0 0 1 2.374 2.525 6.997 6.997 0 0 1 .842 3.345c0 1.309-.346 2.51-1.036 3.604a7.42 7.42 0 0 1-2.784 2.59 7.665 7.665 0 0 1-3.755.95Zm.734-.518c.864 0 1.633-.23 2.31-.69.69-.475 1.23-1.166 1.618-2.072.403-.907.604-1.986.604-3.237 0-1.324-.223-2.511-.669-3.561-.431-1.05-1.057-1.87-1.877-2.46-.806-.59-1.755-.885-2.849-.885-1.395 0-2.482.503-3.259 1.51-.762.993-1.144 2.374-1.144 4.144 0 1.367.224 2.604.67 3.712.46 1.108 1.086 1.978 1.877 2.611a4.352 4.352 0 0 0 2.72.928ZM54.849.626c.029 0 .043.043.043.13 0 .086-.014.129-.043.129-.575 0-1.022.208-1.338.626-.317.403-.475.985-.475 1.748v11.157c0 .043-.036.072-.108.087-.072.014-.122.007-.15-.022L42.654 2.72v8.784c0 .762.151 1.345.454 1.748.302.403.74.604 1.316.604.029 0 .043.043.043.13 0 .086-.014.13-.043.13-.388 0-.683-.008-.885-.022l-1.143-.022-1.274.022c-.23.014-.561.021-.993.021-.043 0-.064-.043-.064-.13 0-.086.021-.129.064-.129.62 0 1.094-.201 1.425-.604.345-.403.518-.986.518-1.748V2.05c-.403-.431-.77-.734-1.1-.906a2.046 2.046 0 0 0-.994-.26c-.028 0-.043-.042-.043-.129 0-.086.015-.13.043-.13l.864.022c.187.015.453.022.798.022l1.381-.022c.173-.014.382-.021.626-.021.115 0 .202.029.26.086.057.058.143.173.258.345.245.331.425.562.54.691l7.747 9.15v-7.64c0-.762-.15-1.344-.453-1.747-.302-.418-.734-.626-1.295-.626-.029 0-.043-.043-.043-.13 0-.086.014-.13.043-.13l.885.022c.46.03.842.044 1.144.044.288 0 .676-.015 1.165-.044l.95-.021ZM65.735 10.748c0-.03.029-.044.087-.044.043 0 .079.015.107.043.043.015.065.03.065.044a23.143 23.143 0 0 0-.216 3 .43.43 0 0 1-.065.258c-.043.044-.129.065-.258.065h-9.367c-.043 0-.065-.043-.065-.13 0-.086.022-.129.065-.129.49 0 .842-.036 1.058-.108.23-.072.381-.208.453-.41.086-.216.13-.54.13-.97V2.373c0-.432-.044-.748-.13-.95-.072-.201-.223-.338-.453-.41-.23-.086-.583-.13-1.058-.13-.043 0-.065-.042-.065-.129 0-.086.022-.13.065-.13h8.978c.144 0 .216.066.216.195l.043 2.806c0 .028-.043.05-.13.064-.071.015-.114 0-.129-.043-.345-1.64-1.345-2.46-3-2.46h-.863c-.518 0-.885.093-1.1.28-.217.188-.324.504-.324.95V6.82h2.071c1.583 0 2.374-.533 2.374-1.597 0-.043.036-.065.108-.065.087 0 .13.022.13.065L64.44 7.1l.022 1.015c.029.46.043.834.043 1.122 0 .029-.043.043-.13.043-.086 0-.129-.014-.129-.043 0-1.237-.806-1.856-2.417-1.856h-2.05v4.899c0 .475.086.806.259.993.187.187.51.28.97.28h1.058c1.928 0 3.151-.935 3.67-2.806ZM5.725 32C2.507 32 .187 30.335 0 27.323h1.422c.187 2.077 1.46 3.48 4.247 3.48 2.469 0 3.31-1.179 3.31-2.657.02-1.983-1.365-2.32-4.115-2.937C2.675 24.704.561 24.031.561 21.58c0-2.133 1.703-3.442 4.453-3.442 2.9 0 4.733 1.478 4.939 4.097H8.53c-.225-1.852-1.254-2.9-3.517-2.9-1.965 0-3.03.805-3.03 2.189 0 1.796 1.59 2.17 3.554 2.6 2.75.599 4.864 1.272 4.864 3.985 0 2.17-1.497 3.891-4.677 3.891ZM18.207 32c-3.873 0-6.436-2.918-6.436-6.94 0-4.023 2.563-6.922 6.436-6.922 3.854 0 6.417 2.9 6.417 6.922S22.06 32 18.207 32Zm0-1.197c3.293 0 4.995-2.582 4.995-5.743 0-3.162-1.703-5.725-4.995-5.725-3.311 0-5.014 2.563-5.014 5.725 0 3.161 1.703 5.743 5.014 5.743ZM35.373 31.757h-8.586V18.381h1.365V30.56h7.221v1.197ZM41.335 32c-3.498 0-5.032-1.908-5.032-4.752v-8.867h1.365v8.867c0 2.395 1.198 3.555 3.667 3.555 2.47 0 3.667-1.16 3.667-3.555v-8.867h1.366v8.867c0 2.844-1.534 4.752-5.033 4.752ZM53.864 31.757h-1.347V19.578H47.97v-1.197h10.458v1.197h-4.565v12.18ZM61.476 31.757H60.11V18.381h1.366v13.376ZM70.074 32c-3.872 0-6.435-2.918-6.435-6.94 0-4.023 2.563-6.922 6.435-6.922 3.854 0 6.417 2.9 6.417 6.922S73.928 32 70.074 32Zm0-1.197c3.293 0 4.995-2.582 4.995-5.743 0-3.162-1.702-5.725-4.995-5.725-3.311 0-5.013 2.563-5.013 5.725 0 3.161 1.702 5.743 5.013 5.743ZM80.02 31.757h-1.366V18.381h1.665l7.24 11.45h.037V18.38h1.366v13.376h-1.665l-7.24-11.45h-.038v11.45Z" fill="#000"></path></svg>