<svg xmlns="http://www.w3.org/2000/svg" width="182" height="16" fill="none"><path d="M7.674 16C3.776 16 1.04 13.976.869 10.509h2.455c.172 2.067 1.4 3.467 4.285 3.467 2.476 0 3.23-1.077 3.23-2.477 0-1.96-1.507-2.24-4.307-2.95-2.411-.646-5.06-1.421-5.06-4.35C1.472 1.53 3.54 0 6.855 0c3.51 0 5.793 1.787 6.03 4.888H10.43c-.258-1.852-1.314-2.864-3.553-2.864-1.938 0-2.929.71-2.929 2.046 0 1.723 1.615 2.089 3.596 2.584 2.972.754 5.771 1.464 5.771 4.716 0 2.649-1.787 4.63-5.641 4.63ZM20.972 15.698h-2.39V2.348h-4.974V.3h12.338v2.046h-4.974v13.351ZM33.625 16c-4.608 0-7.558-3.38-7.558-8.01S29.017 0 33.625 0s7.559 3.36 7.559 7.99c0 4.63-2.95 8.01-7.559 8.01Zm0-2.046c3.64 0 5.082-2.8 5.082-5.965s-1.443-5.943-5.082-5.943-5.081 2.778-5.081 5.943c0 3.166 1.442 5.965 5.081 5.965ZM45.865 15.698h-2.369V.301h2.714l7.149 11.844h.043V.301h2.39v15.397h-2.713l-7.17-11.843h-.044v11.843ZM69.958 15.698h-11.11V.301h10.895v2.046h-8.527V6.72h7.472v2.045h-7.472v4.889h8.742v2.045ZM85.321 15.979c-3.703 0-6.374-1.917-6.589-5.384h1.636c.216 2.39 1.68 4.005 4.889 4.005 2.842 0 3.81-1.356 3.81-3.058.023-2.282-1.571-2.67-4.736-3.38-2.52-.582-4.953-1.357-4.953-4.178 0-2.455 1.96-3.962 5.125-3.962 3.338 0 5.448 1.7 5.685 4.716H88.55C88.293 2.606 87.108 1.4 84.503 1.4c-2.261 0-3.489.926-3.489 2.52 0 2.067 1.83 2.497 4.092 2.993 3.165.689 5.598 1.464 5.598 4.586 0 2.498-1.722 4.48-5.383 4.48ZM99.688 15.979c-4.457 0-7.407-3.36-7.407-7.99 0-4.63 2.95-7.967 7.407-7.967 4.436 0 7.386 3.337 7.386 7.967 0 4.63-2.95 7.99-7.386 7.99Zm0-1.379c3.79 0 5.75-2.971 5.75-6.61 0-3.64-1.96-6.59-5.75-6.59-3.811 0-5.77 2.95-5.77 6.59 0 3.639 1.959 6.61 5.77 6.61ZM119.447 15.698h-9.884V.301h1.572v14.02h8.312v1.377ZM126.309 15.979c-4.027 0-5.792-2.197-5.792-5.47V.3h1.572V10.51c0 2.756 1.378 4.091 4.22 4.091 2.843 0 4.221-1.335 4.221-4.091V.3h1.572V10.51c0 3.273-1.766 5.47-5.793 5.47ZM140.73 15.698h-1.551V1.68h-5.232V.3h12.037V1.68h-5.254v14.018ZM149.491 15.698h-1.572V.301h1.572v15.397ZM159.388 15.979c-4.457 0-7.407-3.36-7.407-7.99 0-4.63 2.95-7.967 7.407-7.967 4.436 0 7.386 3.337 7.386 7.967 0 4.63-2.95 7.99-7.386 7.99Zm0-1.379c3.79 0 5.749-2.971 5.749-6.61 0-3.64-1.959-6.59-5.749-6.59-3.811 0-5.771 2.95-5.771 6.59 0 3.639 1.96 6.61 5.771 6.61ZM170.835 15.698h-1.572V.301h1.917l8.333 13.18h.043V.3h1.572v15.397h-1.916L170.878 2.52h-.043v13.178Z" fill="#000"></path></svg>