<svg xmlns="http://www.w3.org/2000/svg" width="180" height="16" fill="none"><path fill="#fff" d="M87.74 15.744c-3.548 0-6.106-1.836-6.312-5.157h1.568c.206 2.29 1.609 3.837 4.682 3.837 2.724 0 3.652-1.3 3.652-2.93.02-2.186-1.506-2.557-4.539-3.238-2.413-.557-4.744-1.3-4.744-4.002 0-2.352 1.877-3.796 4.91-3.796 3.197 0 5.219 1.63 5.446 4.518h-1.568c-.248-2.042-1.382-3.198-3.879-3.198-2.166 0-3.342.887-3.342 2.414 0 1.98 1.754 2.393 3.92 2.867 3.032.66 5.364 1.403 5.364 4.394 0 2.393-1.65 4.291-5.158 4.291ZM101.504 15.744c-4.27 0-7.096-3.218-7.096-7.653S97.234.458 101.504.458c4.25 0 7.076 3.198 7.076 7.633 0 4.435-2.826 7.653-7.076 7.653Zm0-1.32c3.631 0 5.508-2.847 5.508-6.333 0-3.487-1.877-6.313-5.508-6.313-3.651 0-5.528 2.826-5.528 6.313 0 3.486 1.877 6.333 5.528 6.333ZM120.434 15.476h-9.469V.726h1.506v13.43h7.963v1.32ZM127.008 15.744c-3.858 0-5.55-2.104-5.55-5.24V.726h1.506v9.779c0 2.64 1.321 3.919 4.044 3.919s4.043-1.279 4.043-3.92V.726h1.506v9.779c0 3.135-1.692 5.24-5.549 5.24ZM140.823 15.476h-1.485V2.046h-5.013V.726h11.531v1.32h-5.033v13.43ZM149.217 15.476h-1.506V.726h1.506v14.75ZM158.698 15.744c-4.27 0-7.096-3.218-7.096-7.653s2.826-7.633 7.096-7.633c4.25 0 7.076 3.198 7.076 7.633 0 4.435-2.826 7.653-7.076 7.653Zm0-1.32c3.631 0 5.508-2.847 5.508-6.333 0-3.487-1.877-6.313-5.508-6.313-3.651 0-5.529 2.826-5.529 6.313 0 3.486 1.878 6.333 5.529 6.333ZM169.665 15.476h-1.506V.726h1.836l7.983 12.625h.041V.726h1.506v14.75h-1.836l-7.983-12.625h-.041v12.625ZM2.662 3.213c0 .587.143 1.11.428 1.57A5.09 5.09 0 0 0 4.185 5.95c.444.334 1.04.73 1.785 1.19.809.508 1.444.944 1.904 1.31.476.364.872.816 1.19 1.356.333.523.5 1.142.5 1.856 0 .809-.215 1.53-.643 2.165-.413.635-1.008 1.135-1.785 1.5-.762.349-1.634.523-2.618.523a8.711 8.711 0 0 1-2.07-.261c-.698-.175-1.23-.39-1.595-.643-.142-.095-.222-.246-.238-.452l-.142-3.617v-.024c0-.064.04-.095.119-.095.079-.016.127.008.142.071.524 1.317 1.119 2.396 1.785 3.237.682.84 1.547 1.26 2.594 1.26.682 0 1.254-.182 1.714-.547.46-.38.69-1.007.69-1.88 0-.698-.159-1.309-.476-1.832a4.338 4.338 0 0 0-1.142-1.309 26.802 26.802 0 0 0-1.833-1.285 26.039 26.039 0 0 1-1.785-1.237 4.943 4.943 0 0 1-1.094-1.262C.885 5.466.734 4.88.734 4.213c0-.826.23-1.524.69-2.095A4.037 4.037 0 0 1 3.21.857 6.466 6.466 0 0 1 5.542.428c.539 0 1.078.056 1.618.167.54.095.991.222 1.356.38.143.048.238.112.286.191.047.064.071.15.071.262l.072 3.236c0 .048-.048.088-.143.12-.08.015-.127-.009-.143-.072a10.056 10.056 0 0 0-1.285-2.618C6.85 1.301 6.057.904 4.994.904c-.714 0-1.285.207-1.713.619-.413.413-.619.976-.619 1.69ZM15.842 1.19c-.968 0-1.769.301-2.404.904-.618.587-1.094 1.484-1.427 2.69 0 .031-.048.047-.143.047-.08 0-.12-.024-.12-.071.064-.62.136-1.412.215-2.38.08-.984.119-1.722.119-2.213 0-.08.04-.12.119-.12.095 0 .143.04.143.12 0 .349.444.523 1.333.523 1.364.048 2.958.072 4.783.072.936 0 1.927-.016 2.974-.048L23.053.69c.603 0 1.039-.04 1.309-.119.285-.08.468-.238.547-.476.016-.063.064-.095.143-.095.08 0 .119.032.119.095a50.302 50.302 0 0 0-.143 2.237c-.048 1-.071 1.809-.071 2.428 0 .047-.048.07-.143.07-.08 0-.127-.023-.143-.07-.159-1.222-.531-2.118-1.119-2.69-.587-.587-1.38-.88-2.38-.88-.444 0-.777.04-.999.119a.715.715 0 0 0-.428.428c-.064.19-.095.5-.095.928v10.971c0 .492.047.849.143 1.071.095.222.285.373.57.452.286.08.738.12 1.357.12.048 0 .072.047.072.142 0 .095-.024.143-.072.143-.555 0-.991-.008-1.309-.024l-1.951-.024-1.856.024c-.334.016-.794.024-1.38.024-.032 0-.048-.048-.048-.143 0-.095.016-.143.047-.143.62 0 1.071-.04 1.357-.119.301-.08.5-.23.595-.452.11-.238.166-.595.166-1.07V2.616c0-.412-.04-.713-.119-.904a.72.72 0 0 0-.428-.404c-.206-.08-.524-.12-.952-.12ZM34.381 15.85c-1.475 0-2.792-.342-3.95-1.024a7.31 7.31 0 0 1-2.666-2.808c-.618-1.19-.928-2.483-.928-3.88 0-1.633.413-3.03 1.238-4.188A7.74 7.74 0 0 1 31.24 1.31c1.3-.587 2.625-.88 3.974-.88 1.507 0 2.832.356 3.974 1.07a7.007 7.007 0 0 1 2.618 2.785 7.715 7.715 0 0 1 .928 3.688c0 1.444-.38 2.769-1.142 3.974a8.184 8.184 0 0 1-3.07 2.856 8.454 8.454 0 0 1-4.14 1.047Zm.81-.572c.951 0 1.8-.254 2.545-.761.762-.524 1.357-1.285 1.785-2.285.445-1 .667-2.19.667-3.57 0-1.46-.246-2.768-.738-3.926-.476-1.158-1.166-2.063-2.07-2.713-.889-.65-1.936-.976-3.142-.976-1.539 0-2.736.555-3.593 1.666-.841 1.095-1.261 2.618-1.261 4.57 0 1.506.245 2.87.737 4.092.508 1.222 1.198 2.182 2.07 2.88a4.799 4.799 0 0 0 3 1.023ZM60.954.69c.032 0 .048.048.048.143 0 .095-.016.143-.048.143-.634 0-1.126.23-1.475.69-.35.444-.524 1.087-.524 1.927v12.304c0 .047-.04.08-.119.095-.08.016-.135.008-.166-.024L47.508 2.998v9.686c0 .841.167 1.484.5 1.928.333.444.817.666 1.452.666.032 0 .047.048.047.143 0 .095-.015.143-.047.143-.428 0-.754-.008-.976-.024l-1.261-.024-1.404.024c-.254.016-.619.024-1.095.024-.047 0-.071-.048-.071-.143 0-.095.023-.143.071-.143.682 0 1.206-.222 1.57-.666.382-.444.572-1.087.572-1.928V2.261c-.444-.476-.849-.81-1.214-1a2.255 2.255 0 0 0-1.094-.285c-.032 0-.048-.048-.048-.143 0-.095.016-.143.048-.143l.952.024c.206.016.5.024.88.024l1.523-.024c.19-.016.42-.024.69-.024.127 0 .222.032.286.095.063.064.158.19.285.381.27.365.468.619.595.762l8.544 10.09V3.593c0-.84-.167-1.483-.5-1.927-.333-.46-.81-.69-1.428-.69-.032 0-.048-.048-.048-.143 0-.095.016-.143.048-.143l.976.024c.507.032.928.048 1.261.048.317 0 .746-.016 1.285-.048L60.954.69ZM72.958 11.851c0-.032.032-.047.096-.047.047 0 .087.015.118.047.048.016.072.032.072.048a25.514 25.514 0 0 0-.238 3.308c0 .127-.024.222-.072.285-.047.048-.142.072-.285.072H62.32c-.048 0-.072-.048-.072-.143 0-.095.024-.143.072-.143.54 0 .928-.04 1.166-.119.254-.08.42-.23.5-.452.095-.238.142-.595.142-1.07V2.616c0-.475-.047-.824-.143-1.046-.079-.222-.245-.373-.5-.453-.253-.095-.642-.142-1.165-.142-.048 0-.072-.048-.072-.143 0-.095.024-.143.072-.143h9.9c.158 0 .237.072.237.214l.048 3.094c0 .032-.047.056-.143.071-.079.016-.127 0-.142-.047-.381-1.809-1.484-2.713-3.308-2.713h-.952c-.571 0-.976.103-1.214.31-.238.205-.357.555-.357 1.046V7.52h2.285c1.745 0 2.617-.587 2.617-1.76 0-.049.04-.072.12-.072.095 0 .142.023.142.071l-.024 2.07.024 1.119c.032.508.048.92.048 1.237 0 .032-.048.048-.143.048-.095 0-.143-.016-.143-.048 0-1.364-.888-2.046-2.665-2.046h-2.26v5.402c0 .524.094.888.285 1.095.206.206.563.309 1.07.309h1.167c2.126 0 3.474-1.031 4.045-3.094Z"></path></svg>