<svg xmlns="http://www.w3.org/2000/svg" width="172" height="28" viewBox="0 0 172 28" fill="none"><path d="M0.340963 0.254561C0.585757 0.266217 0.906321 0.277874 1.30265 0.289531C1.69899 0.301187 2.08949 0.307016 2.47417 0.307016C3.02204 0.307016 3.5466 0.301187 4.04784 0.289531C4.54909 0.277874 4.90462 0.272046 5.11445 0.272046C6.05865 0.272046 6.83966 0.4061 7.45747 0.674207C8.08694 0.942315 8.55322 1.30951 8.8563 1.77578C9.17103 2.2304 9.3284 2.7433 9.3284 3.31448C9.3284 3.66419 9.25846 4.03721 9.11858 4.43354C8.97869 4.82988 8.7339 5.2029 8.38419 5.5526C8.04614 5.90231 7.57987 6.19373 6.98537 6.42687C6.39087 6.64835 5.639 6.75909 4.72977 6.75909H3.05118V6.40938H4.55492C5.38255 6.40938 6.01202 6.28115 6.44333 6.0247C6.88629 5.7566 7.18354 5.40689 7.33508 4.97559C7.49827 4.53263 7.57987 4.04304 7.57987 3.50682C7.57987 2.58593 7.35839 1.87486 6.91543 1.37362C6.48413 0.860717 5.73809 0.604266 4.67731 0.604266C4.1411 0.604266 3.79139 0.703349 3.6282 0.901516C3.465 1.09968 3.3834 1.50184 3.3834 2.108V10.7807C3.3834 11.2003 3.41837 11.5151 3.48831 11.7249C3.55826 11.9347 3.69231 12.0746 3.89048 12.1446C4.1003 12.2145 4.40338 12.2611 4.79971 12.2844V12.6341C4.5316 12.6108 4.19355 12.5992 3.78556 12.5992C3.38923 12.5875 2.98707 12.5817 2.57908 12.5817C2.12446 12.5817 1.69899 12.5875 1.30265 12.5992C0.906321 12.5992 0.585757 12.6108 0.340963 12.6341V12.2844C0.737296 12.2611 1.03455 12.2145 1.23271 12.1446C1.44254 12.0746 1.58242 11.9347 1.65236 11.7249C1.7223 11.5151 1.75727 11.2003 1.75727 10.7807V2.108C1.75727 1.6767 1.7223 1.36196 1.65236 1.1638C1.58242 0.953972 1.44254 0.814089 1.23271 0.744148C1.03455 0.66255 0.737296 0.615923 0.340963 0.604266V0.254561ZM3.12112 6.46184C3.75059 6.48515 4.24601 6.51429 4.60737 6.54926C4.96873 6.57258 5.26016 6.59589 5.48164 6.6192C5.71477 6.64252 5.93625 6.67166 6.14608 6.70663C6.92709 6.83486 7.48662 7.07382 7.82466 7.42353C8.17437 7.76158 8.43082 8.29196 8.59402 9.01469L9.03115 10.7982C9.14772 11.3111 9.26429 11.6841 9.38085 11.9172C9.50908 12.1387 9.70142 12.2436 9.95787 12.232C10.156 12.2203 10.3192 12.1562 10.4475 12.0396C10.5873 11.9231 10.733 11.7657 10.8846 11.5675L11.1469 11.7599C10.9021 12.1212 10.6456 12.401 10.3775 12.5992C10.1211 12.7857 9.75387 12.8789 9.27594 12.8789C8.84464 12.8789 8.46579 12.7507 8.1394 12.4943C7.81301 12.2378 7.56821 11.7366 7.40502 10.9905L7.02034 9.242C6.91543 8.74075 6.79303 8.30945 6.65315 7.94809C6.52493 7.57507 6.33842 7.28364 6.09362 7.07382C5.86048 6.864 5.51078 6.75909 5.0445 6.75909H3.15609L3.12112 6.46184Z" fill="currentColor"></path><path d="M21.6981 0.254561V0.604266C21.3368 0.650893 20.9871 0.767462 20.649 0.953971C20.311 1.14048 19.9729 1.44939 19.6349 1.88069L16.2602 6.19956L16.6449 5.34278L20.8414 11.2178C21.0395 11.5093 21.2552 11.7366 21.4883 11.8998C21.7215 12.063 22.0187 12.1912 22.3801 12.2844V12.6341C22.1003 12.6108 21.7506 12.5992 21.331 12.5992C20.923 12.5875 20.5733 12.5817 20.2818 12.5817C20.0837 12.5817 19.8389 12.5875 19.5475 12.5992C19.2677 12.5992 18.9122 12.6108 18.4809 12.6341V12.2844C18.8772 12.2611 19.1278 12.1912 19.2327 12.0746C19.3376 11.958 19.2968 11.7657 19.1103 11.4976L16.5575 7.65084C16.3243 7.28947 16.1145 7.02137 15.928 6.84651C15.7531 6.66 15.5666 6.53761 15.3685 6.47932C15.182 6.42104 14.943 6.38607 14.6516 6.37441V6.0247C15.1412 6.01305 15.5492 5.91979 15.8755 5.74494C16.2136 5.55843 16.4934 5.32529 16.7148 5.04553L18.3934 2.91232C18.7781 2.42273 19.0404 2.00892 19.1803 1.67087C19.3201 1.33282 19.3143 1.07637 19.1628 0.901516C19.0112 0.715006 18.6907 0.615923 18.2011 0.604266V0.254561C18.4226 0.266217 18.6499 0.277874 18.883 0.289531C19.1162 0.289531 19.3435 0.295359 19.5649 0.307016C19.7981 0.307016 20.0137 0.307016 20.2119 0.307016C20.515 0.307016 20.7947 0.301187 21.0512 0.289531C21.3076 0.277874 21.5233 0.266217 21.6981 0.254561ZM16.1378 0.254561V0.604266C15.7415 0.615923 15.4384 0.66255 15.2286 0.744148C15.0304 0.814089 14.8964 0.953972 14.8264 1.1638C14.7565 1.36196 14.7215 1.6767 14.7215 2.108V10.7807C14.7215 11.2003 14.7565 11.5151 14.8264 11.7249C14.8964 11.9347 15.0304 12.0746 15.2286 12.1446C15.4384 12.2145 15.7415 12.2611 16.1378 12.2844V12.6341C15.8697 12.6108 15.5317 12.5992 15.1237 12.5992C14.7273 12.5875 14.3252 12.5817 13.9172 12.5817C13.4626 12.5817 13.0371 12.5875 12.6408 12.5992C12.2444 12.5992 11.9239 12.6108 11.6791 12.6341V12.2844C12.0754 12.2611 12.3727 12.2145 12.5708 12.1446C12.7807 12.0746 12.9205 11.9347 12.9905 11.7249C13.0604 11.5151 13.0954 11.2003 13.0954 10.7807V2.108C13.0954 1.6767 13.0604 1.36196 12.9905 1.1638C12.9205 0.953972 12.7807 0.814089 12.5708 0.744148C12.3727 0.66255 12.0754 0.615923 11.6791 0.604266V0.254561C11.9239 0.266217 12.2444 0.277874 12.6408 0.289531C13.0371 0.301187 13.4626 0.307016 13.9172 0.307016C14.3252 0.307016 14.7273 0.301187 15.1237 0.289531C15.5317 0.277874 15.8697 0.266217 16.1378 0.254561Z" fill="currentColor"></path><path d="M23.1367 0.254561C23.3815 0.266217 23.7021 0.277874 24.0984 0.289531C24.4947 0.301187 24.8852 0.307016 25.2699 0.307016C25.8178 0.307016 26.3424 0.301187 26.8436 0.289531C27.3448 0.277874 27.7004 0.272046 27.9102 0.272046C29.1342 0.272046 30.0551 0.528496 30.6729 1.0414C31.2907 1.5543 31.5996 2.21291 31.5996 3.01724C31.5996 3.42522 31.5122 3.82739 31.3373 4.22372C31.1741 4.6084 30.8944 4.96393 30.498 5.29032C30.1133 5.60506 29.5946 5.86151 28.9418 6.05967V6.09465C29.8627 6.21121 30.5796 6.43269 31.0925 6.75909C31.6171 7.07382 31.9843 7.44684 32.1941 7.87814C32.4039 8.30945 32.5088 8.76406 32.5088 9.242C32.5088 9.90644 32.3398 10.4951 32.0018 11.008C31.6754 11.5093 31.1974 11.9056 30.568 12.197C29.9385 12.4884 29.1866 12.6341 28.3124 12.6341C28.0559 12.6341 27.6712 12.6283 27.1583 12.6167C26.6454 12.5933 26.0276 12.5817 25.3049 12.5817C24.8969 12.5817 24.4947 12.5875 24.0984 12.5992C23.7021 12.5992 23.3815 12.6108 23.1367 12.6341V12.2844C23.5331 12.2611 23.8303 12.2145 24.0285 12.1446C24.2383 12.0746 24.3782 11.9347 24.4481 11.7249C24.5181 11.5151 24.553 11.2003 24.553 10.7807V2.108C24.553 1.6767 24.5181 1.36196 24.4481 1.1638C24.3782 0.953972 24.2383 0.814089 24.0285 0.744148C23.8303 0.66255 23.5331 0.615923 23.1367 0.604266V0.254561ZM27.4731 0.604266C26.9369 0.604266 26.5871 0.703349 26.424 0.901516C26.2608 1.09968 26.1792 1.50184 26.1792 2.108V10.7807C26.1792 11.1887 26.2141 11.4976 26.2841 11.7074C26.354 11.9172 26.4822 12.0571 26.6687 12.1271C26.8553 12.197 27.1292 12.232 27.4906 12.232C28.6329 12.232 29.4606 11.9697 29.9735 11.4451C30.498 10.9089 30.7603 10.1512 30.7603 9.17205C30.7603 8.27448 30.5155 7.58089 30.0259 7.09131C29.548 6.60172 28.7553 6.35692 27.6479 6.35692H25.8469C25.8469 6.35692 25.8469 6.3103 25.8469 6.21704C25.8469 6.11213 25.8469 6.05967 25.8469 6.05967H27.3507C28.0384 6.05967 28.5688 5.93145 28.9418 5.675C29.3149 5.40689 29.5713 5.05718 29.7112 4.62588C29.8511 4.18292 29.921 3.71082 29.921 3.20957C29.921 2.34697 29.7287 1.70001 29.344 1.26871C28.971 0.825746 28.3473 0.604266 27.4731 0.604266Z" fill="currentColor"></path><path d="M44.1378 0.00976562C44.9071 0.00976562 45.5366 0.126334 46.0262 0.359472C46.5274 0.580952 46.9704 0.843231 47.3551 1.14631C47.5882 1.32116 47.7631 1.34448 47.8796 1.21625C48.0079 1.07637 48.0953 0.755805 48.1419 0.254561H48.5441C48.5208 0.685864 48.5033 1.21042 48.4916 1.82824C48.48 2.44605 48.4741 3.26203 48.4741 4.27618H48.072C47.9904 3.77493 47.9146 3.3786 47.8447 3.08718C47.7747 2.7841 47.6873 2.52765 47.5824 2.31782C47.4891 2.108 47.3609 1.89818 47.1977 1.68835C46.8363 1.21042 46.3817 0.866545 45.8338 0.656721C45.286 0.435241 44.709 0.324501 44.1028 0.324501C43.5316 0.324501 43.0129 0.470212 42.5466 0.761634C42.092 1.0414 41.6957 1.44939 41.3576 1.9856C41.0312 2.52182 40.7748 3.16877 40.5883 3.92647C40.4134 4.68417 40.326 5.53512 40.326 6.47932C40.326 7.4585 40.4251 8.32693 40.6232 9.08463C40.8214 9.83067 41.0953 10.4601 41.445 10.973C41.8064 11.4859 42.226 11.8764 42.704 12.1446C43.1936 12.401 43.7181 12.5292 44.2777 12.5292C44.8022 12.5292 45.3501 12.4243 45.9213 12.2145C46.4925 12.0047 46.9412 11.6666 47.2676 11.2003C47.5241 10.8623 47.6989 10.4951 47.7922 10.0988C47.8971 9.70244 47.9904 9.14874 48.072 8.43767H48.4741C48.4741 9.49845 48.48 10.3552 48.4916 11.008C48.5033 11.6491 48.5208 12.1912 48.5441 12.6341H48.1419C48.0953 12.1329 48.0137 11.8182 47.8971 11.6899C47.7922 11.5617 47.6115 11.5792 47.3551 11.7424C46.9238 12.0455 46.4633 12.3136 45.9737 12.5467C45.4958 12.7682 44.878 12.8789 44.1203 12.8789C43.0129 12.8789 42.0395 12.6283 41.2002 12.1271C40.3726 11.6258 39.7257 10.9031 39.2594 9.95889C38.8048 9.01469 38.5775 7.87814 38.5775 6.54926C38.5775 5.24369 38.8164 4.10132 39.2943 3.12215C39.7723 2.14297 40.4251 1.37945 41.2527 0.831575C42.092 0.283702 43.0537 0.00976562 44.1378 0.00976562Z" fill="currentColor"></path><path d="M56.176 0.00976562C57.2834 0.00976562 58.2509 0.260388 59.0785 0.761634C59.9178 1.26288 60.5648 1.9856 61.0194 2.92981C61.4857 3.86236 61.7188 4.9989 61.7188 6.33944C61.7188 7.64501 61.4799 8.78738 61.0019 9.76655C60.5356 10.7457 59.8829 11.5093 59.0436 12.0571C58.2043 12.605 57.2426 12.8789 56.1585 12.8789C55.0511 12.8789 54.0777 12.6283 53.2385 12.1271C52.4108 11.6258 51.7639 10.9031 51.2976 9.95889C50.843 9.01469 50.6157 7.87814 50.6157 6.54926C50.6157 5.24369 50.8546 4.10132 51.3326 3.12215C51.8105 2.14297 52.4633 1.37945 53.2909 0.831575C54.1302 0.283702 55.0919 0.00976562 56.176 0.00976562ZM56.106 0.324501C55.3483 0.324501 54.6897 0.58678 54.1302 1.11134C53.5707 1.6359 53.1335 2.35862 52.8188 3.27951C52.5157 4.20041 52.3642 5.26701 52.3642 6.47932C52.3642 7.71495 52.5332 8.79321 52.8713 9.7141C53.221 10.6233 53.6872 11.3286 54.2701 11.8298C54.8646 12.3194 55.5174 12.5642 56.2284 12.5642C56.9861 12.5642 57.6447 12.3019 58.2043 11.7774C58.7638 11.2528 59.1951 10.5301 59.4982 9.60919C59.8129 8.67664 59.9703 7.61004 59.9703 6.40938C59.9703 5.1621 59.7954 4.08384 59.4457 3.1746C59.1077 2.26537 58.6472 1.56596 58.0644 1.07637C57.4815 0.575123 56.8288 0.324501 56.106 0.324501Z" fill="currentColor"></path><path d="M74.2278 0.254561V0.604266C73.8314 0.615923 73.5284 0.674207 73.3185 0.779119C73.1204 0.88403 72.9863 1.05305 72.9164 1.28619C72.8464 1.51933 72.8115 1.85155 72.8115 2.28285V12.7216C72.7415 12.7216 72.6716 12.7216 72.6016 12.7216C72.5433 12.7216 72.4792 12.7216 72.4093 12.7216L65.0655 1.37362V10.6058C65.0655 11.0255 65.1004 11.3577 65.1704 11.6025C65.252 11.8356 65.4035 12.0047 65.625 12.1096C65.8581 12.2028 66.202 12.2611 66.6566 12.2844V12.6341C66.4468 12.6108 66.1729 12.5992 65.8348 12.5992C65.4968 12.5875 65.1762 12.5817 64.8731 12.5817C64.5817 12.5817 64.2845 12.5875 63.9814 12.5992C63.69 12.5992 63.4452 12.6108 63.247 12.6341V12.2844C63.6433 12.2611 63.9406 12.2028 64.1387 12.1096C64.3486 12.0047 64.4885 11.8356 64.5584 11.6025C64.6283 11.3577 64.6633 11.0255 64.6633 10.6058V2.108C64.6633 1.6767 64.6283 1.36196 64.5584 1.1638C64.4885 0.953972 64.3486 0.814089 64.1387 0.744148C63.9406 0.66255 63.6433 0.615923 63.247 0.604266V0.254561C63.4452 0.266217 63.69 0.277874 63.9814 0.289531C64.2845 0.301187 64.5817 0.307016 64.8731 0.307016C65.1296 0.307016 65.3744 0.301187 65.6075 0.289531C65.8407 0.277874 66.0505 0.266217 66.237 0.254561L72.4093 9.76655V2.28285C72.4093 1.85155 72.3685 1.51933 72.2869 1.28619C72.217 1.05305 72.0654 0.88403 71.8323 0.779119C71.6108 0.674207 71.2727 0.615923 70.8181 0.604266V0.254561C71.028 0.266217 71.3019 0.277874 71.6399 0.289531C71.9896 0.301187 72.3102 0.307016 72.6016 0.307016C72.9047 0.307016 73.202 0.301187 73.4934 0.289531C73.7965 0.277874 74.0413 0.266217 74.2278 0.254561Z" fill="currentColor"></path><path d="M79.3344 0.0622218C79.9173 0.0622218 80.3602 0.132163 80.6633 0.272046C80.9664 0.400271 81.2345 0.545981 81.4676 0.709177C81.6075 0.790776 81.7183 0.854889 81.7999 0.901516C81.8931 0.936486 81.9805 0.953971 82.0621 0.953971C82.1787 0.953971 82.2603 0.889859 82.3069 0.761634C82.3652 0.633408 82.4118 0.44107 82.4468 0.184619H82.849C82.8373 0.382785 82.8198 0.621751 82.7965 0.901516C82.7849 1.16962 82.7732 1.53099 82.7615 1.9856C82.7615 2.42856 82.7615 3.01724 82.7615 3.75162H82.3594C82.3244 3.19209 82.202 2.65587 81.9922 2.14297C81.7824 1.63007 81.4734 1.21042 81.0655 0.88403C80.6691 0.557638 80.1446 0.394442 79.4918 0.394442C78.874 0.394442 78.3611 0.580952 77.9531 0.953971C77.5567 1.32699 77.3586 1.81658 77.3586 2.42273C77.3586 2.94729 77.4926 3.39025 77.7607 3.75162C78.0288 4.10132 78.3844 4.42189 78.8273 4.71331C79.282 4.99307 79.7716 5.29615 80.2961 5.62254C80.9023 5.99556 81.4385 6.36858 81.9048 6.7416C82.3827 7.10296 82.7557 7.50512 83.0238 7.94809C83.3036 8.39105 83.4435 8.92726 83.4435 9.55673C83.4435 10.3028 83.2744 10.9206 82.9364 11.4102C82.5983 11.8998 82.1495 12.267 81.59 12.5117C81.0305 12.7565 80.4127 12.8789 79.7366 12.8789C79.1188 12.8789 78.6292 12.809 78.2678 12.6691C77.9065 12.5292 77.5975 12.3835 77.3411 12.232C77.0846 12.0688 76.8865 11.9872 76.7466 11.9872C76.63 11.9872 76.5426 12.0513 76.4843 12.1795C76.4377 12.3077 76.3969 12.5001 76.3619 12.7565H75.9598C75.9831 12.5117 75.9947 12.2262 75.9947 11.8998C76.0064 11.5617 76.0122 11.1246 76.0122 10.5884C76.0239 10.0521 76.0297 9.37605 76.0297 8.56007H76.4319C76.4785 9.25948 76.6067 9.91226 76.8165 10.5184C77.038 11.1246 77.3702 11.6142 77.8132 11.9872C78.2678 12.3485 78.8681 12.5292 79.6142 12.5292C79.9989 12.5292 80.3602 12.4535 80.6983 12.3019C81.048 12.1387 81.3336 11.8881 81.555 11.5501C81.7765 11.2003 81.8873 10.7516 81.8873 10.2037C81.8873 9.72576 81.7707 9.31194 81.5376 8.96223C81.3161 8.60087 81.0014 8.26865 80.5934 7.96557C80.1854 7.65084 79.7074 7.33027 79.1596 7.00388C78.6117 6.66583 78.0988 6.32195 77.6209 5.97225C77.1429 5.62254 76.7583 5.22038 76.4668 4.76576C76.1871 4.29949 76.0472 3.73996 76.0472 3.08718C76.0472 2.39942 76.1987 1.83406 76.5018 1.3911C76.8165 0.936486 77.2245 0.604266 77.7258 0.394442C78.227 0.172962 78.7632 0.0622218 79.3344 0.0622218Z" fill="currentColor"></path><path d="M94.6522 0.254561C94.6056 0.697521 94.5706 1.12882 94.5473 1.54847C94.5356 1.95646 94.5298 2.2712 94.5298 2.49268C94.5298 2.77244 94.5356 3.03472 94.5473 3.27951C94.559 3.52431 94.5706 3.73996 94.5823 3.92647H94.1801C94.0985 3.11049 93.9878 2.46936 93.8479 2.00309C93.708 1.52516 93.4632 1.18128 93.1135 0.971456C92.7638 0.761633 92.2218 0.656721 91.4874 0.656721H90.5432V10.6058C90.5432 11.0721 90.584 11.4218 90.6656 11.655C90.7588 11.8881 90.9337 12.0455 91.1901 12.1271C91.4466 12.2087 91.8196 12.2611 92.3092 12.2844V12.6341C92.0061 12.6108 91.6214 12.5992 91.1552 12.5992C90.6889 12.5875 90.2168 12.5817 89.7388 12.5817C89.2143 12.5817 88.7189 12.5875 88.2526 12.5992C87.798 12.5992 87.4308 12.6108 87.151 12.6341V12.2844C87.6406 12.2611 88.0136 12.2087 88.2701 12.1271C88.5265 12.0455 88.6956 11.8881 88.7772 11.655C88.8704 11.4218 88.917 11.0721 88.917 10.6058V0.656721H87.9728C87.2501 0.656721 86.7081 0.761633 86.3467 0.971456C85.997 1.18128 85.7522 1.52516 85.6123 2.00309C85.4724 2.46936 85.3617 3.11049 85.2801 3.92647H84.8779C84.9013 3.73996 84.9129 3.52431 84.9129 3.27951C84.9246 3.03472 84.9304 2.77244 84.9304 2.49268C84.9304 2.2712 84.9187 1.95646 84.8954 1.54847C84.8838 1.12882 84.8546 0.697521 84.808 0.254561C85.2976 0.266217 85.828 0.277874 86.3992 0.289531C86.982 0.301187 87.5648 0.307016 88.1477 0.307016C88.7305 0.307016 89.2609 0.307016 89.7388 0.307016C90.2168 0.307016 90.7413 0.307016 91.3125 0.307016C91.8954 0.307016 92.4782 0.301187 93.061 0.289531C93.6439 0.277874 94.1743 0.266217 94.6522 0.254561Z" fill="currentColor"></path><path d="M95.8953 0.254561C96.1401 0.266217 96.4607 0.277874 96.857 0.289531C97.2533 0.301187 97.6438 0.307016 98.0285 0.307016C98.5764 0.307016 99.1009 0.301187 99.6022 0.289531C100.103 0.277874 100.459 0.272046 100.669 0.272046C101.613 0.272046 102.394 0.4061 103.012 0.674207C103.641 0.942315 104.108 1.30951 104.411 1.77578C104.725 2.2304 104.883 2.7433 104.883 3.31448C104.883 3.66419 104.813 4.03721 104.673 4.43354C104.533 4.82988 104.288 5.2029 103.939 5.5526C103.6 5.90231 103.134 6.19373 102.54 6.42687C101.945 6.64835 101.193 6.75909 100.284 6.75909H98.6055V6.40938H100.109C100.937 6.40938 101.566 6.28115 101.998 6.0247C102.441 5.7566 102.738 5.40689 102.889 4.97559C103.053 4.53263 103.134 4.04304 103.134 3.50682C103.134 2.58593 102.913 1.87486 102.47 1.37362C102.038 0.860717 101.292 0.604266 100.232 0.604266C99.6954 0.604266 99.3457 0.703349 99.1825 0.901516C99.0193 1.09968 98.9377 1.50184 98.9377 2.108V10.7807C98.9377 11.2003 98.9727 11.5151 99.0427 11.7249C99.1126 11.9347 99.2467 12.0746 99.4448 12.1446C99.6546 12.2145 99.9577 12.2611 100.354 12.2844V12.6341C100.086 12.6108 99.7479 12.5992 99.3399 12.5992C98.9436 12.5875 98.5414 12.5817 98.1334 12.5817C97.6788 12.5817 97.2533 12.5875 96.857 12.5992C96.4607 12.5992 96.1401 12.6108 95.8953 12.6341V12.2844C96.2916 12.2611 96.5889 12.2145 96.7871 12.1446C96.9969 12.0746 97.1368 11.9347 97.2067 11.7249C97.2766 11.5151 97.3116 11.2003 97.3116 10.7807V2.108C97.3116 1.6767 97.2766 1.36196 97.2067 1.1638C97.1368 0.953972 96.9969 0.814089 96.7871 0.744148C96.5889 0.66255 96.2916 0.615923 95.8953 0.604266V0.254561ZM98.6755 6.46184C99.3049 6.48515 99.8004 6.51429 100.162 6.54926C100.523 6.57258 100.814 6.59589 101.036 6.6192C101.269 6.64252 101.491 6.67166 101.7 6.70663C102.481 6.83486 103.041 7.07382 103.379 7.42353C103.729 7.76158 103.985 8.29196 104.148 9.01469L104.585 10.7982C104.702 11.3111 104.819 11.6841 104.935 11.9172C105.063 12.1387 105.256 12.2436 105.512 12.232C105.71 12.2203 105.874 12.1562 106.002 12.0396C106.142 11.9231 106.287 11.7657 106.439 11.5675L106.701 11.7599C106.456 12.1212 106.2 12.401 105.932 12.5992C105.675 12.7857 105.308 12.8789 104.83 12.8789C104.399 12.8789 104.02 12.7507 103.694 12.4943C103.367 12.2378 103.123 11.7366 102.959 10.9905L102.575 9.242C102.47 8.74075 102.347 8.30945 102.207 7.94809C102.079 7.57507 101.893 7.28364 101.648 7.07382C101.415 6.864 101.065 6.75909 100.599 6.75909H98.7104L98.6755 6.46184Z" fill="currentColor"></path><path d="M117.832 0.254561V0.604266C117.436 0.615923 117.133 0.674207 116.923 0.779119C116.725 0.88403 116.591 1.05305 116.521 1.28619C116.451 1.51933 116.416 1.85155 116.416 2.28285V7.54592C116.416 8.3619 116.364 9.07297 116.259 9.67913C116.154 10.2853 115.967 10.8098 115.699 11.2528C115.408 11.7424 114.982 12.1387 114.423 12.4418C113.863 12.7332 113.222 12.8789 112.499 12.8789C111.94 12.8789 111.404 12.809 110.891 12.6691C110.389 12.5409 109.947 12.2961 109.562 11.9347C109.224 11.6083 108.956 11.2645 108.757 10.9031C108.571 10.5417 108.443 10.0988 108.373 9.57422C108.303 9.04966 108.268 8.39105 108.268 7.59838V2.108C108.268 1.6767 108.233 1.36196 108.163 1.1638C108.093 0.953972 107.953 0.814089 107.743 0.744148C107.545 0.66255 107.248 0.615923 106.852 0.604266V0.254561C107.096 0.266217 107.417 0.277874 107.813 0.289531C108.21 0.301187 108.635 0.307016 109.09 0.307016C109.498 0.307016 109.9 0.301187 110.296 0.289531C110.704 0.277874 111.042 0.266217 111.31 0.254561V0.604266C110.914 0.615923 110.611 0.66255 110.401 0.744148C110.203 0.814089 110.069 0.953972 109.999 1.1638C109.929 1.36196 109.894 1.6767 109.894 2.108V7.89563C109.894 8.49013 109.923 9.05549 109.981 9.5917C110.04 10.1163 110.156 10.5825 110.331 10.9905C110.518 11.3869 110.797 11.7016 111.17 11.9347C111.544 12.1562 112.039 12.267 112.657 12.267C113.543 12.267 114.225 12.0746 114.702 11.6899C115.192 11.2936 115.53 10.7516 115.717 10.0638C115.915 9.37605 116.014 8.60087 116.014 7.73826V2.28285C116.014 1.85155 115.961 1.51933 115.857 1.28619C115.763 1.05305 115.6 0.88403 115.367 0.779119C115.134 0.674207 114.819 0.615923 114.423 0.604266V0.254561C114.633 0.266217 114.906 0.277874 115.245 0.289531C115.594 0.301187 115.915 0.307016 116.206 0.307016C116.509 0.307016 116.807 0.301187 117.098 0.289531C117.401 0.277874 117.646 0.266217 117.832 0.254561Z" fill="currentColor"></path><path d="M124.683 0.00976562C125.452 0.00976562 126.082 0.126334 126.571 0.359472C127.072 0.580952 127.515 0.843231 127.9 1.14631C128.133 1.32116 128.308 1.34448 128.425 1.21625C128.553 1.07637 128.64 0.755805 128.687 0.254561H129.089C129.066 0.685864 129.048 1.21042 129.037 1.82824C129.025 2.44605 129.019 3.26203 129.019 4.27618H128.617C128.535 3.77493 128.46 3.3786 128.39 3.08718C128.32 2.7841 128.232 2.52765 128.127 2.31782C128.034 2.108 127.906 1.89818 127.743 1.68835C127.381 1.21042 126.927 0.866545 126.379 0.656721C125.831 0.435241 125.254 0.324501 124.648 0.324501C124.077 0.324501 123.558 0.470212 123.092 0.761634C122.637 1.0414 122.241 1.44939 121.903 1.9856C121.576 2.52182 121.32 3.16877 121.133 3.92647C120.958 4.68417 120.871 5.53512 120.871 6.47932C120.871 7.4585 120.97 8.32693 121.168 9.08463C121.366 9.83067 121.64 10.4601 121.99 10.973C122.351 11.4859 122.771 11.8764 123.249 12.1446C123.739 12.401 124.263 12.5292 124.823 12.5292C125.347 12.5292 125.895 12.4243 126.466 12.2145C127.037 12.0047 127.486 11.6666 127.813 11.2003C128.069 10.8623 128.244 10.4951 128.337 10.0988C128.442 9.70244 128.535 9.14874 128.617 8.43767H129.019C129.019 9.49845 129.025 10.3552 129.037 11.008C129.048 11.6491 129.066 12.1912 129.089 12.6341H128.687C128.64 12.1329 128.559 11.8182 128.442 11.6899C128.337 11.5617 128.157 11.5792 127.9 11.7424C127.469 12.0455 127.008 12.3136 126.519 12.5467C126.041 12.7682 125.423 12.8789 124.665 12.8789C123.558 12.8789 122.585 12.6283 121.745 12.1271C120.918 11.6258 120.271 10.9031 119.804 9.95889C119.35 9.01469 119.122 7.87814 119.122 6.54926C119.122 5.24369 119.361 4.10132 119.839 3.12215C120.317 2.14297 120.97 1.37945 121.798 0.831575C122.637 0.283702 123.599 0.00976562 124.683 0.00976562Z" fill="currentColor"></path><path d="M140.585 0.254561C140.539 0.697521 140.504 1.12882 140.48 1.54847C140.469 1.95646 140.463 2.2712 140.463 2.49268C140.463 2.77244 140.469 3.03472 140.48 3.27951C140.492 3.52431 140.504 3.73996 140.515 3.92647H140.113C140.032 3.11049 139.921 2.46936 139.781 2.00309C139.641 1.52516 139.396 1.18128 139.047 0.971456C138.697 0.761633 138.155 0.656721 137.42 0.656721H136.476V10.6058C136.476 11.0721 136.517 11.4218 136.599 11.655C136.692 11.8881 136.867 12.0455 137.123 12.1271C137.38 12.2087 137.753 12.2611 138.242 12.2844V12.6341C137.939 12.6108 137.554 12.5992 137.088 12.5992C136.622 12.5875 136.15 12.5817 135.672 12.5817C135.147 12.5817 134.652 12.5875 134.186 12.5992C133.731 12.5992 133.364 12.6108 133.084 12.6341V12.2844C133.574 12.2611 133.947 12.2087 134.203 12.1271C134.46 12.0455 134.629 11.8881 134.71 11.655C134.803 11.4218 134.85 11.0721 134.85 10.6058V0.656721H133.906C133.183 0.656721 132.641 0.761633 132.28 0.971456C131.93 1.18128 131.685 1.52516 131.545 2.00309C131.405 2.46936 131.295 3.11049 131.213 3.92647H130.811C130.834 3.73996 130.846 3.52431 130.846 3.27951C130.858 3.03472 130.863 2.77244 130.863 2.49268C130.863 2.2712 130.852 1.95646 130.828 1.54847C130.817 1.12882 130.788 0.697521 130.741 0.254561C131.231 0.266217 131.761 0.277874 132.332 0.289531C132.915 0.301187 133.498 0.307016 134.081 0.307016C134.664 0.307016 135.194 0.307016 135.672 0.307016C136.15 0.307016 136.674 0.307016 137.246 0.307016C137.828 0.307016 138.411 0.301187 138.994 0.289531C139.577 0.277874 140.107 0.266217 140.585 0.254561Z" fill="currentColor"></path><path d="M146.287 0.254561V0.604266C145.891 0.615923 145.588 0.66255 145.378 0.744148C145.18 0.814089 145.046 0.953972 144.976 1.1638C144.906 1.36196 144.871 1.6767 144.871 2.108V10.7807C144.871 11.2003 144.906 11.5151 144.976 11.7249C145.046 11.9347 145.18 12.0746 145.378 12.1446C145.588 12.2145 145.891 12.2611 146.287 12.2844V12.6341C146.019 12.6108 145.681 12.5992 145.273 12.5992C144.877 12.5875 144.474 12.5817 144.066 12.5817C143.612 12.5817 143.186 12.5875 142.79 12.5992C142.394 12.5992 142.073 12.6108 141.828 12.6341V12.2844C142.225 12.2611 142.522 12.2145 142.72 12.1446C142.93 12.0746 143.07 11.9347 143.14 11.7249C143.21 11.5151 143.245 11.2003 143.245 10.7807V2.108C143.245 1.6767 143.21 1.36196 143.14 1.1638C143.07 0.953972 142.93 0.814089 142.72 0.744148C142.522 0.66255 142.225 0.615923 141.828 0.604266V0.254561C142.073 0.266217 142.394 0.277874 142.79 0.289531C143.186 0.301187 143.612 0.307016 144.066 0.307016C144.474 0.307016 144.877 0.301187 145.273 0.289531C145.681 0.277874 146.019 0.266217 146.287 0.254561Z" fill="currentColor"></path><path d="M153.37 0.00976562C154.477 0.00976562 155.444 0.260388 156.272 0.761634C157.111 1.26288 157.758 1.9856 158.213 2.92981C158.679 3.86236 158.912 4.9989 158.912 6.33944C158.912 7.64501 158.673 8.78738 158.196 9.76655C157.729 10.7457 157.076 11.5093 156.237 12.0571C155.398 12.605 154.436 12.8789 153.352 12.8789C152.245 12.8789 151.271 12.6283 150.432 12.1271C149.604 11.6258 148.957 10.9031 148.491 9.95889C148.037 9.01469 147.809 7.87814 147.809 6.54926C147.809 5.24369 148.048 4.10132 148.526 3.12215C149.004 2.14297 149.657 1.37945 150.484 0.831575C151.324 0.283702 152.285 0.00976562 153.37 0.00976562ZM153.3 0.324501C152.542 0.324501 151.883 0.58678 151.324 1.11134C150.764 1.6359 150.327 2.35862 150.012 3.27951C149.709 4.20041 149.558 5.26701 149.558 6.47932C149.558 7.71495 149.727 8.79321 150.065 9.7141C150.415 10.6233 150.881 11.3286 151.464 11.8298C152.058 12.3194 152.711 12.5642 153.422 12.5642C154.18 12.5642 154.838 12.3019 155.398 11.7774C155.957 11.2528 156.389 10.5301 156.692 9.60919C157.007 8.67664 157.164 7.61004 157.164 6.40938C157.164 5.1621 156.989 4.08384 156.639 3.1746C156.301 2.26537 155.841 1.56596 155.258 1.07637C154.675 0.575123 154.022 0.324501 153.3 0.324501Z" fill="currentColor"></path><path d="M171.421 0.254561V0.604266C171.025 0.615923 170.722 0.674207 170.512 0.779119C170.314 0.88403 170.18 1.05305 170.11 1.28619C170.04 1.51933 170.005 1.85155 170.005 2.28285V12.7216C169.935 12.7216 169.865 12.7216 169.795 12.7216C169.737 12.7216 169.673 12.7216 169.603 12.7216L162.259 1.37362V10.6058C162.259 11.0255 162.294 11.3577 162.364 11.6025C162.446 11.8356 162.597 12.0047 162.819 12.1096C163.052 12.2028 163.396 12.2611 163.85 12.2844V12.6341C163.64 12.6108 163.366 12.5992 163.028 12.5992C162.69 12.5875 162.37 12.5817 162.067 12.5817C161.775 12.5817 161.478 12.5875 161.175 12.5992C160.884 12.5992 160.639 12.6108 160.441 12.6341V12.2844C160.837 12.2611 161.134 12.2028 161.332 12.1096C161.542 12.0047 161.682 11.8356 161.752 11.6025C161.822 11.3577 161.857 11.0255 161.857 10.6058V2.108C161.857 1.6767 161.822 1.36196 161.752 1.1638C161.682 0.953972 161.542 0.814089 161.332 0.744148C161.134 0.66255 160.837 0.615923 160.441 0.604266V0.254561C160.639 0.266217 160.884 0.277874 161.175 0.289531C161.478 0.301187 161.775 0.307016 162.067 0.307016C162.323 0.307016 162.568 0.301187 162.801 0.289531C163.034 0.277874 163.244 0.266217 163.431 0.254561L169.603 9.76655V2.28285C169.603 1.85155 169.562 1.51933 169.48 1.28619C169.411 1.05305 169.259 0.88403 169.026 0.779119C168.804 0.674207 168.466 0.615923 168.012 0.604266V0.254561C168.222 0.266217 168.495 0.277874 168.834 0.289531C169.183 0.301187 169.504 0.307016 169.795 0.307016C170.098 0.307016 170.396 0.301187 170.687 0.289531C170.99 0.277874 171.235 0.266217 171.421 0.254561Z" fill="currentColor"></path><path d="M0 24.5616C0 24.1619 0.0686922 23.7654 0.206077 23.372C0.349706 22.9723 0.555782 22.6164 0.824306 22.3041C1.09283 21.9919 1.4238 21.739 1.81722 21.5454C2.21064 21.3456 2.65714 21.2456 3.15672 21.2456C3.74997 21.2456 4.25579 21.3799 4.67419 21.6484C5.09883 21.917 5.41107 22.2667 5.6109 22.6975L5.09571 23.016C4.98955 22.7975 4.85841 22.6132 4.70229 22.4634C4.55242 22.3135 4.39006 22.1917 4.2152 22.0981C4.04035 22.0044 3.85925 21.9388 3.67191 21.9013C3.48457 21.8576 3.30035 21.8358 3.11925 21.8358C2.71959 21.8358 2.36676 21.917 2.06077 22.0793C1.75477 22.2417 1.49562 22.454 1.28329 22.7163C1.07722 22.9786 0.9211 23.2752 0.814939 23.6062C0.708778 23.9309 0.655698 24.2619 0.655698 24.5991C0.655698 24.9675 0.718146 25.3203 0.84304 25.6576C0.97418 25.9948 1.14903 26.2945 1.3676 26.5568C1.59241 26.8128 1.85469 27.0189 2.15444 27.175C2.46043 27.3249 2.7914 27.3998 3.14735 27.3998C3.33469 27.3998 3.52516 27.378 3.71874 27.3343C3.91858 27.2843 4.10904 27.2094 4.29014 27.1095C4.47748 27.0033 4.64921 26.8753 4.80533 26.7254C4.96145 26.5693 5.09259 26.3819 5.19875 26.1634L5.74204 26.4444C5.63588 26.6942 5.48601 26.9159 5.29242 27.1095C5.09883 27.2968 4.88339 27.456 4.64609 27.5872C4.40879 27.7183 4.15588 27.8182 3.88735 27.8869C3.62507 27.9556 3.36592 27.99 3.10988 27.99C2.65402 27.99 2.23562 27.8901 1.85469 27.6902C1.47376 27.4904 1.14591 27.2312 0.871142 26.9127C0.596373 26.588 0.380929 26.2227 0.224811 25.8168C0.0749369 25.4046 0 24.9862 0 24.5616Z" fill="currentColor"></path><path d="M9.55958 27.3905C9.97798 27.3905 10.3246 27.3124 10.5993 27.1563C10.8803 26.9939 11.102 26.7847 11.2644 26.5287C11.433 26.2664 11.5485 25.9698 11.611 25.6388C11.6797 25.3078 11.714 24.9738 11.714 24.6365V21.2831H12.3697V24.6365C12.3697 25.0862 12.3198 25.5139 12.2198 25.9198C12.1199 26.3195 11.9576 26.6723 11.7328 26.9783C11.5142 27.2843 11.2269 27.5279 10.871 27.709C10.515 27.8901 10.081 27.9806 9.56895 27.9806C9.04439 27.9806 8.60101 27.8869 8.23882 27.6996C7.88287 27.506 7.59561 27.2531 7.37704 26.9409C7.15848 26.6286 7.00236 26.2727 6.90869 25.873C6.81502 25.4733 6.76818 25.0612 6.76818 24.6365V21.2831H7.41451V24.6365C7.41451 24.9862 7.44886 25.3266 7.51755 25.6576C7.58624 25.9885 7.70177 26.282 7.86413 26.5381C8.03274 26.7941 8.25443 27.0002 8.5292 27.1563C8.80397 27.3124 9.14743 27.3905 9.55958 27.3905Z" fill="currentColor"></path><path d="M17.8203 22.5289C17.6329 22.3166 17.3831 22.1449 17.0709 22.0137C16.7587 21.8826 16.4027 21.817 16.0031 21.817C15.4161 21.817 14.9883 21.9294 14.7198 22.1543C14.4512 22.3728 14.317 22.6726 14.317 23.0535C14.317 23.2533 14.3513 23.4188 14.42 23.55C14.495 23.6749 14.6074 23.7841 14.7572 23.8778C14.9071 23.9715 15.0976 24.0527 15.3286 24.1213C15.5659 24.19 15.8438 24.2587 16.1623 24.3274C16.5182 24.4024 16.8367 24.4867 17.1177 24.5803C17.405 24.674 17.6486 24.7927 17.8484 24.9363C18.0482 25.0737 18.2012 25.2423 18.3074 25.4421C18.4135 25.6419 18.4666 25.8917 18.4666 26.1915C18.4666 26.4975 18.4073 26.7629 18.2886 26.9877C18.17 27.2125 18.0045 27.3998 17.7922 27.5497C17.5799 27.6996 17.3269 27.812 17.0334 27.8869C16.7399 27.9556 16.4183 27.99 16.0686 27.99C15.0382 27.99 14.1484 27.6684 13.399 27.0252L13.7268 26.4912C13.8455 26.6161 13.986 26.7348 14.1484 26.8472C14.317 26.9596 14.5012 27.0595 14.701 27.1469C14.9071 27.2281 15.1257 27.2937 15.3567 27.3436C15.5878 27.3873 15.8313 27.4092 16.0874 27.4092C16.6182 27.4092 17.0303 27.3155 17.3238 27.1282C17.6236 26.9346 17.7734 26.6442 17.7734 26.2571C17.7734 26.051 17.7297 25.8792 17.6423 25.7419C17.5611 25.5982 17.4362 25.4765 17.2676 25.3765C17.099 25.2704 16.8898 25.1798 16.64 25.1049C16.3902 25.03 16.0999 24.955 15.7689 24.8801C15.4192 24.7989 15.1132 24.7146 14.8509 24.6272C14.5886 24.5397 14.3669 24.4305 14.1858 24.2993C14.0047 24.1682 13.8674 24.0121 13.7737 23.831C13.6863 23.6436 13.6425 23.4157 13.6425 23.1472C13.6425 22.8412 13.6987 22.5695 13.8112 22.3322C13.9298 22.0887 14.0953 21.8889 14.3076 21.7327C14.5199 21.5704 14.7697 21.4486 15.057 21.3674C15.3442 21.28 15.6627 21.2363 16.0124 21.2363C16.4558 21.2363 16.8492 21.305 17.1927 21.4424C17.5424 21.5735 17.8577 21.7608 18.1388 22.0044L17.8203 22.5289Z" fill="currentColor"></path><path d="M24.298 21.8639H21.9281V27.9338H21.2724V21.8639H18.9025V21.2831H24.298V21.8639Z" fill="currentColor"></path><path d="M27.6622 27.9806C27.2001 27.9806 26.7754 27.8869 26.3883 27.6996C26.0073 27.506 25.6795 27.2531 25.4047 26.9409C25.1299 26.6224 24.9176 26.2602 24.7678 25.8543C24.6179 25.4484 24.5429 25.0331 24.5429 24.6084C24.5429 24.1651 24.621 23.7404 24.7771 23.3345C24.9395 22.9286 25.1612 22.5695 25.4422 22.2573C25.7232 21.9451 26.0542 21.6984 26.4351 21.5173C26.816 21.3299 27.2282 21.2363 27.6716 21.2363C28.1337 21.2363 28.5552 21.3362 28.9361 21.536C29.3233 21.7296 29.6511 21.9856 29.9197 22.3041C30.1944 22.6226 30.4068 22.9848 30.5566 23.3907C30.7065 23.7904 30.7814 24.1994 30.7814 24.6178C30.7814 25.0612 30.7003 25.4858 30.5379 25.8917C30.3818 26.2976 30.1632 26.6567 29.8822 26.969C29.6074 27.2749 29.2796 27.5216 28.8987 27.709C28.5177 27.8901 28.1056 27.9806 27.6622 27.9806ZM25.1986 24.6084C25.1986 24.9706 25.258 25.3203 25.3766 25.6576C25.4953 25.9885 25.6639 26.2852 25.8824 26.5474C26.101 26.8035 26.3602 27.0095 26.6599 27.1657C26.9597 27.3155 27.2938 27.3905 27.6622 27.3905C28.0369 27.3905 28.3772 27.3093 28.6832 27.1469C28.9892 26.9846 29.2484 26.7722 29.4607 26.51C29.673 26.2477 29.8354 25.9511 29.9478 25.6201C30.0664 25.2891 30.1257 24.9519 30.1257 24.6084C30.1257 24.2462 30.0633 23.8997 29.9384 23.5687C29.8197 23.2315 29.6511 22.9348 29.4326 22.6788C29.214 22.4228 28.9549 22.2198 28.6551 22.0699C28.3554 21.9138 28.0244 21.8358 27.6622 21.8358C27.2875 21.8358 26.9472 21.917 26.6412 22.0793C26.3352 22.2354 26.076 22.4446 25.8637 22.7069C25.6514 22.9692 25.4859 23.2658 25.3672 23.5968C25.2548 23.9278 25.1986 24.265 25.1986 24.6084Z" fill="currentColor"></path><path d="M37.9096 27.9338V22.4727L35.4835 26.6973H35.0995L32.6734 22.4727V27.9338H32.0177V21.2831H32.6921L35.2868 25.8355L37.9002 21.2831H38.5653V27.9338H37.9096Z" fill="currentColor"></path><path d="M42.6197 27.9338V21.2831H44.8772C45.408 21.2831 45.8701 21.3705 46.2635 21.5454C46.6632 21.7202 46.9942 21.9575 47.2564 22.2573C47.525 22.557 47.7248 22.9099 47.8559 23.3158C47.9933 23.7154 48.062 24.1432 48.062 24.5991C48.062 25.1049 47.9871 25.5639 47.8372 25.976C47.6873 26.3819 47.4719 26.7317 47.1909 27.0252C46.9161 27.3124 46.582 27.5372 46.1886 27.6996C45.8014 27.8557 45.3643 27.9338 44.8772 27.9338H42.6197ZM47.4063 24.5991C47.4063 24.1994 47.3501 23.8341 47.2377 23.5031C47.1253 23.1659 46.9598 22.8755 46.7412 22.632C46.5289 22.3884 46.2666 22.2011 45.9544 22.0699C45.6422 21.9326 45.2831 21.8639 44.8772 21.8639H43.2754V27.353H44.8772C45.2893 27.353 45.6515 27.2843 45.9638 27.1469C46.2823 27.0033 46.5477 26.8097 46.76 26.5662C46.9723 26.3164 47.1315 26.026 47.2377 25.695C47.3501 25.3578 47.4063 24.9925 47.4063 24.5991Z" fill="currentColor"></path><path d="M53.7839 27.353V27.9338H49.3157V21.2831H53.6996V21.8639H49.9714V24.2619H53.2218V24.8145H49.9714V27.353H53.7839Z" fill="currentColor"></path><path d="M58.774 22.5289C58.5866 22.3166 58.3368 22.1449 58.0246 22.0137C57.7124 21.8826 57.3564 21.817 56.9567 21.817C56.3697 21.817 55.942 21.9294 55.6735 22.1543C55.4049 22.3728 55.2707 22.6726 55.2707 23.0535C55.2707 23.2533 55.305 23.4188 55.3737 23.55C55.4486 23.6749 55.5611 23.7841 55.7109 23.8778C55.8608 23.9715 56.0513 24.0527 56.2823 24.1213C56.5196 24.19 56.7975 24.2587 57.116 24.3274C57.4719 24.4024 57.7904 24.4867 58.0714 24.5803C58.3587 24.674 58.6022 24.7927 58.8021 24.9363C59.0019 25.0737 59.1549 25.2423 59.2611 25.4421C59.3672 25.6419 59.4203 25.8917 59.4203 26.1915C59.4203 26.4975 59.361 26.7629 59.2423 26.9877C59.1237 27.2125 58.9582 27.3998 58.7459 27.5497C58.5336 27.6996 58.2806 27.812 57.9871 27.8869C57.6936 27.9556 57.372 27.99 57.0223 27.99C55.9919 27.99 55.1021 27.6684 54.3527 27.0252L54.6805 26.4912C54.7992 26.6161 54.9397 26.7348 55.1021 26.8472C55.2707 26.9596 55.4549 27.0595 55.6547 27.1469C55.8608 27.2281 56.0794 27.2937 56.3104 27.3436C56.5415 27.3873 56.785 27.4092 57.0411 27.4092C57.5719 27.4092 57.984 27.3155 58.2775 27.1282C58.5773 26.9346 58.7271 26.6442 58.7271 26.2571C58.7271 26.051 58.6834 25.8792 58.596 25.7419C58.5148 25.5982 58.3899 25.4765 58.2213 25.3765C58.0527 25.2704 57.8435 25.1798 57.5937 25.1049C57.3439 25.03 57.0535 24.955 56.7226 24.8801C56.3729 24.7989 56.0669 24.7146 55.8046 24.6272C55.5423 24.5397 55.3206 24.4305 55.1395 24.2993C54.9584 24.1682 54.821 24.0121 54.7274 23.831C54.6399 23.6436 54.5962 23.4157 54.5962 23.1472C54.5962 22.8412 54.6524 22.5695 54.7648 22.3322C54.8835 22.0887 55.049 21.8889 55.2613 21.7327C55.4736 21.5704 55.7234 21.4486 56.0107 21.3674C56.2979 21.28 56.6164 21.2363 56.9661 21.2363C57.4095 21.2363 57.8029 21.305 58.1464 21.4424C58.4961 21.5735 58.8114 21.7608 59.0925 22.0044L58.774 22.5289Z" fill="currentColor"></path><path d="M60.5764 27.9338V21.2831H61.2321V27.9338H60.5764Z" fill="currentColor"></path><path d="M67.7052 26.9596C67.087 27.6403 66.3751 27.9806 65.5695 27.9806C65.1199 27.9806 64.7046 27.8838 64.3237 27.6902C63.949 27.4966 63.6212 27.2406 63.3401 26.9221C63.0654 26.6036 62.8499 26.2446 62.6938 25.8449C62.5377 25.439 62.4596 25.0237 62.4596 24.5991C62.4596 24.1557 62.5346 23.7311 62.6844 23.3251C62.8406 22.9192 63.056 22.5633 63.3308 22.2573C63.6055 21.9451 63.9303 21.6984 64.305 21.5173C64.6796 21.3299 65.0887 21.2363 65.5321 21.2363C65.8568 21.2363 66.1534 21.2737 66.4219 21.3487C66.6905 21.4174 66.9277 21.5173 67.1338 21.6484C67.3462 21.7733 67.5273 21.9263 67.6771 22.1074C67.8332 22.2823 67.9644 22.4759 68.0705 22.6882L67.5647 23.0254C67.3462 22.6132 67.062 22.3104 66.7123 22.1168C66.3626 21.9232 65.9661 21.8264 65.5227 21.8264C65.1542 21.8264 64.8202 21.9045 64.5204 22.0606C64.2269 22.2167 63.974 22.4259 63.7617 22.6882C63.5556 22.9442 63.3963 23.2408 63.2839 23.5781C63.1715 23.909 63.1153 24.2525 63.1153 24.6084C63.1153 24.9831 63.1778 25.3391 63.3027 25.6763C63.4338 26.0135 63.6118 26.3101 63.8366 26.5662C64.0614 26.816 64.3237 27.0158 64.6234 27.1657C64.9294 27.3155 65.2604 27.3905 65.6164 27.3905C65.9973 27.3905 66.3595 27.303 66.7029 27.1282C67.0526 26.9471 67.3867 26.663 67.7052 26.2758V25.1705H66.2252V24.6646H68.2579V27.9338H67.7052V26.9596Z" fill="currentColor"></path><path d="M70.2608 22.5008V27.9338H69.6051V21.2831H70.1109L74.5134 26.8191V21.2925H75.1691V27.9338H74.5977L70.2608 22.5008Z" fill="currentColor"></path><path d="M81.3089 27.353V27.9338H76.8408V21.2831H81.2246V21.8639H77.4965V24.2619H80.7469V24.8145H77.4965V27.353H81.3089Z" fill="currentColor"></path><path d="M82.5489 27.9338V21.2831H84.8064C85.3372 21.2831 85.7993 21.3705 86.1927 21.5454C86.5923 21.7202 86.9233 21.9575 87.1856 22.2573C87.4541 22.557 87.654 22.9099 87.7851 23.3158C87.9225 23.7154 87.9912 24.1432 87.9912 24.5991C87.9912 25.1049 87.9162 25.5639 87.7664 25.976C87.6165 26.3819 87.401 26.7317 87.12 27.0252C86.8453 27.3124 86.5112 27.5372 86.1178 27.6996C85.7306 27.8557 85.2934 27.9338 84.8064 27.9338H82.5489ZM87.3355 24.5991C87.3355 24.1994 87.2793 23.8341 87.1669 23.5031C87.0545 23.1659 86.889 22.8755 86.6704 22.632C86.4581 22.3884 86.1958 22.2011 85.8836 22.0699C85.5713 21.9326 85.2123 21.8639 84.8064 21.8639H83.2046V27.353H84.8064C85.2185 27.353 85.5807 27.2843 85.8929 27.1469C86.2114 27.0033 86.4768 26.8097 86.6891 26.5662C86.9015 26.3164 87.0607 26.026 87.1669 25.695C87.2793 25.3578 87.3355 24.9925 87.3355 24.5991Z" fill="currentColor"></path><path d="M93.281 24.6927C93.281 24.93 93.1999 25.1299 93.0375 25.2922C92.8751 25.4546 92.6784 25.5358 92.4474 25.5358C92.2163 25.5358 92.0165 25.4546 91.8479 25.2922C91.6855 25.1299 91.6043 24.93 91.6043 24.6927C91.6043 24.5803 91.6262 24.4742 91.6699 24.3743C91.7136 24.2743 91.7729 24.1869 91.8479 24.112C91.929 24.0308 92.0196 23.9684 92.1195 23.9246C92.2257 23.8809 92.335 23.8591 92.4474 23.8591C92.5598 23.8591 92.6659 23.8809 92.7658 23.9246C92.872 23.9684 92.9626 24.0308 93.0375 24.112C93.1124 24.1869 93.1718 24.2743 93.2155 24.3743C93.2592 24.4742 93.281 24.5803 93.281 24.6927Z" fill="currentColor"></path><path d="M97.3039 27.9338V21.2831H97.9596V27.353H101.8V27.9338H97.3039Z" fill="currentColor"></path><path d="M105.051 27.3905C105.47 27.3905 105.816 27.3124 106.091 27.1563C106.372 26.9939 106.594 26.7847 106.756 26.5287C106.925 26.2664 107.04 25.9698 107.103 25.6388C107.171 25.3078 107.206 24.9738 107.206 24.6365V21.2831H107.861V24.6365C107.861 25.0862 107.811 25.5139 107.711 25.9198C107.611 26.3195 107.449 26.6723 107.224 26.9783C107.006 27.2843 106.718 27.5279 106.363 27.709C106.007 27.8901 105.573 27.9806 105.06 27.9806C104.536 27.9806 104.093 27.8869 103.73 27.6996C103.374 27.506 103.087 27.2531 102.869 26.9409C102.65 26.6286 102.494 26.2727 102.4 25.873C102.307 25.4733 102.26 25.0612 102.26 24.6365V21.2831H102.906V24.6365C102.906 24.9862 102.94 25.3266 103.009 25.6576C103.078 25.9885 103.193 26.282 103.356 26.5381C103.524 26.7941 103.746 27.0002 104.021 27.1563C104.295 27.3124 104.639 27.3905 105.051 27.3905Z" fill="currentColor"></path><path d="M109.378 21.2831L111.56 24.1869L113.743 21.2831H114.464L111.907 24.6553L114.389 27.9338H113.668L111.56 25.1236L109.453 27.9338H108.713L111.195 24.6553L108.638 21.2831H109.378Z" fill="currentColor"></path><path d="M118.041 27.3905C118.459 27.3905 118.806 27.3124 119.08 27.1563C119.361 26.9939 119.583 26.7847 119.745 26.5287C119.914 26.2664 120.03 25.9698 120.092 25.6388C120.161 25.3078 120.195 24.9738 120.195 24.6365V21.2831H120.851V24.6365C120.851 25.0862 120.801 25.5139 120.701 25.9198C120.601 26.3195 120.439 26.6723 120.214 26.9783C119.995 27.2843 119.708 27.5279 119.352 27.709C118.996 27.8901 118.562 27.9806 118.05 27.9806C117.525 27.9806 117.082 27.8869 116.72 27.6996C116.364 27.506 116.077 27.2531 115.858 26.9409C115.64 26.6286 115.483 26.2727 115.39 25.873C115.296 25.4733 115.249 25.0612 115.249 24.6365V21.2831H115.896V24.6365C115.896 24.9862 115.93 25.3266 115.999 25.6576C116.067 25.9885 116.183 26.282 116.345 26.5381C116.514 26.7941 116.736 27.0002 117.01 27.1563C117.285 27.3124 117.629 27.3905 118.041 27.3905Z" fill="currentColor"></path><path d="M122.414 27.9338V21.2831H125.224C125.511 21.2831 125.774 21.3456 126.011 21.4705C126.255 21.5891 126.464 21.7483 126.639 21.9482C126.813 22.1418 126.948 22.3635 127.041 22.6132C127.141 22.863 127.191 23.1159 127.191 23.372C127.191 23.6155 127.154 23.8497 127.079 24.0745C127.01 24.2931 126.91 24.4929 126.779 24.674C126.654 24.8489 126.501 24.9987 126.32 25.1236C126.139 25.2423 125.936 25.3235 125.711 25.3672L127.341 27.9338H126.601L125.037 25.4796H123.07V27.9338H122.414ZM123.07 24.8988H125.243C125.436 24.8988 125.611 24.8582 125.767 24.777C125.93 24.6896 126.067 24.5741 126.18 24.4305C126.292 24.2868 126.379 24.1245 126.442 23.9434C126.504 23.7623 126.536 23.5718 126.536 23.372C126.536 23.1721 126.498 22.9817 126.423 22.8006C126.354 22.6132 126.258 22.4509 126.133 22.3135C126.014 22.1761 125.87 22.0668 125.702 21.9856C125.54 21.9045 125.368 21.8639 125.187 21.8639H123.07V24.8988Z" fill="currentColor"></path><path d="M128.352 21.2831L130.525 24.8613L132.717 21.2831H133.429L130.853 25.4608V27.9338H130.197V25.4421L127.63 21.2831H128.352Z" fill="currentColor"></path><path d="M141.729 21.2831V27.9338H141.082V24.8239H137.139V27.9338H136.483V21.2831H137.139V24.2431H141.082V21.2831H141.729Z" fill="currentColor"></path><path d="M146.078 27.9806C145.615 27.9806 145.191 27.8869 144.804 27.6996C144.423 27.506 144.095 27.2531 143.82 26.9409C143.545 26.6224 143.333 26.2602 143.183 25.8543C143.033 25.4484 142.958 25.0331 142.958 24.6084C142.958 24.1651 143.036 23.7404 143.192 23.3345C143.355 22.9286 143.577 22.5695 143.858 22.2573C144.139 21.9451 144.47 21.6984 144.85 21.5173C145.231 21.3299 145.644 21.2363 146.087 21.2363C146.549 21.2363 146.971 21.3362 147.351 21.536C147.739 21.7296 148.066 21.9856 148.335 22.3041C148.61 22.6226 148.822 22.9848 148.972 23.3907C149.122 23.7904 149.197 24.1994 149.197 24.6178C149.197 25.0612 149.116 25.4858 148.953 25.8917C148.797 26.2976 148.579 26.6567 148.298 26.969C148.023 27.2749 147.695 27.5216 147.314 27.709C146.933 27.8901 146.521 27.9806 146.078 27.9806ZM143.614 24.6084C143.614 24.9706 143.673 25.3203 143.792 25.6576C143.911 25.9885 144.079 26.2852 144.298 26.5474C144.516 26.8035 144.776 27.0095 145.075 27.1657C145.375 27.3155 145.709 27.3905 146.078 27.3905C146.452 27.3905 146.793 27.3093 147.099 27.1469C147.405 26.9846 147.664 26.7722 147.876 26.51C148.088 26.2477 148.251 25.9511 148.363 25.6201C148.482 25.2891 148.541 24.9519 148.541 24.6084C148.541 24.2462 148.479 23.8997 148.354 23.5687C148.235 23.2315 148.066 22.9348 147.848 22.6788C147.629 22.4228 147.37 22.2198 147.07 22.0699C146.771 21.9138 146.44 21.8358 146.078 21.8358C145.703 21.8358 145.363 21.917 145.057 22.0793C144.751 22.2354 144.491 22.4446 144.279 22.7069C144.067 22.9692 143.901 23.2658 143.783 23.5968C143.67 23.9278 143.614 24.265 143.614 24.6084Z" fill="currentColor"></path><path d="M156.325 27.9338V22.4727L153.899 26.6973H153.515L151.089 22.4727V27.9338H150.433V21.2831H151.107L153.702 25.8355L156.316 21.2831H156.981V27.9338H156.325Z" fill="currentColor"></path><path d="M163.116 27.353V27.9338H158.648V21.2831H163.031V21.8639H159.303V24.2619H162.554V24.8145H159.303V27.353H163.116Z" fill="currentColor"></path><path d="M168.106 22.5289C167.918 22.3166 167.669 22.1449 167.356 22.0137C167.044 21.8826 166.688 21.817 166.289 21.817C165.702 21.817 165.274 21.9294 165.005 22.1543C164.737 22.3728 164.602 22.6726 164.602 23.0535C164.602 23.2533 164.637 23.4188 164.706 23.55C164.78 23.6749 164.893 23.7841 165.043 23.8778C165.193 23.9715 165.383 24.0527 165.614 24.1213C165.851 24.19 166.129 24.2587 166.448 24.3274C166.804 24.4024 167.122 24.4867 167.403 24.5803C167.69 24.674 167.934 24.7927 168.134 24.9363C168.334 25.0737 168.487 25.2423 168.593 25.4421C168.699 25.6419 168.752 25.8917 168.752 26.1915C168.752 26.4975 168.693 26.7629 168.574 26.9877C168.455 27.2125 168.29 27.3998 168.078 27.5497C167.865 27.6996 167.612 27.812 167.319 27.8869C167.025 27.9556 166.704 27.99 166.354 27.99C165.324 27.99 164.434 27.6684 163.685 27.0252L164.012 26.4912C164.131 26.6161 164.271 26.7348 164.434 26.8472C164.602 26.9596 164.787 27.0595 164.987 27.1469C165.193 27.2281 165.411 27.2937 165.642 27.3436C165.873 27.3873 166.117 27.4092 166.373 27.4092C166.904 27.4092 167.316 27.3155 167.609 27.1282C167.909 26.9346 168.059 26.6442 168.059 26.2571C168.059 26.051 168.015 25.8792 167.928 25.7419C167.847 25.5982 167.722 25.4765 167.553 25.3765C167.385 25.2704 167.175 25.1798 166.926 25.1049C166.676 25.03 166.385 24.955 166.054 24.8801C165.705 24.7989 165.399 24.7146 165.136 24.6272C164.874 24.5397 164.652 24.4305 164.471 24.2993C164.29 24.1682 164.153 24.0121 164.059 23.831C163.972 23.6436 163.928 23.4157 163.928 23.1472C163.928 22.8412 163.984 22.5695 164.097 22.3322C164.215 22.0887 164.381 21.8889 164.593 21.7327C164.805 21.5704 165.055 21.4486 165.342 21.3674C165.63 21.28 165.948 21.2363 166.298 21.2363C166.741 21.2363 167.135 21.305 167.478 21.4424C167.828 21.5735 168.143 21.7608 168.424 22.0044L168.106 22.5289Z" fill="currentColor"></path></svg>