<svg xmlns="http://www.w3.org/2000/svg" width="164" height="30" viewBox="0 0 164 30" fill="none"><path d="M28.9132 11.7527V6.45971C28.9132 6.25057 28.6558 6.05751 28.4627 6.00925L14.8201 0.36237C14.7236 0.314106 14.5145 0.314106 14.4179 0.36237L0.727057 6.00925C0.582266 6.05751 0.421387 6.26666 0.421387 6.45971V11.7527C0.421387 11.9618 0.517914 12.1549 0.727057 12.2031L7.29096 14.9703L0.727057 17.7052C0.517914 17.7535 0.421387 17.9626 0.421387 18.1557V23.4486C0.421387 23.6578 0.517914 23.8508 0.727057 23.8991L14.3697 29.546C14.434 29.5621 14.5305 29.5942 14.5788 29.5942C14.6271 29.5942 14.7075 29.5781 14.7719 29.546L28.511 23.8991C28.7202 23.8026 28.9615 23.6417 28.9615 23.4486V18.1718C28.9615 17.9626 28.7041 17.7696 28.511 17.7213L21.8345 14.9703L28.4949 12.2192C28.7041 12.1709 28.9132 11.9618 28.9132 11.7527ZM14.5627 23.513L7.99883 20.7137L14.5627 17.9144L21.1266 20.7137L14.5627 23.513ZM14.5627 16.8525L9.97765 14.9703L14.5627 13.088L19.1478 14.9703L14.5627 16.8525ZM14.5627 11.817L7.99883 9.0177L14.5627 6.21839L21.1266 9.0177L14.5627 11.817ZM14.1605 5.34964L6.72788 8.50289L2.20715 6.57233L14.1605 1.58506V5.34964ZM22.4941 8.50289L15.1741 5.34964V1.58506L27.1274 6.52407L22.4941 8.50289ZM1.43493 11.447V7.37673L13.3883 12.4605L8.65843 14.4394L1.43493 11.447ZM13.1952 17.3995L6.63135 20.1988L2.04627 18.2683L8.61017 15.5655L13.1952 17.3995ZM1.43493 19.0888L14.1605 24.43V28.3555L1.43493 23.159V19.0888ZM15.1741 28.3394V24.4139L27.8997 19.0727V23.1429L15.1741 28.3394ZM27.0309 18.22L22.4458 20.1506L15.8819 17.3995L20.467 15.5172L27.0309 18.22ZM20.5635 14.4072L15.8819 12.4123L27.8836 7.32846V11.3987L20.5635 14.4072Z" fill="currentColor"></path><path d="M39.8712 3.20166H41.6382V7.2126H46.2803V3.20166H48.0473V13.1308H46.2803V8.72722H41.6382V13.1308H39.8712V3.20166Z" fill="currentColor"></path><path d="M62.0472 10.7607L64.3612 13.1308H62.1173L61.0234 11.9949C60.6962 12.3782 60.2988 12.6961 59.8313 12.9485C59.3639 13.201 58.7702 13.3272 58.0503 13.3272C57.6108 13.3272 57.1901 13.2664 56.7881 13.1449C56.386 13.0233 56.0308 12.841 55.7222 12.5979C55.423 12.3548 55.18 12.0556 54.993 11.7004C54.8153 11.3357 54.7265 10.915 54.7265 10.4382C54.7265 10.0736 54.7873 9.74632 54.9088 9.45648C55.0304 9.1573 55.1893 8.89084 55.3857 8.6571C55.5913 8.42336 55.8204 8.22235 56.0728 8.05406C56.3346 7.88576 56.6058 7.74085 56.8862 7.6193C56.559 7.28272 56.2972 6.93679 56.1009 6.58151C55.9139 6.21688 55.8204 5.81952 55.8204 5.38944C55.8204 4.96871 55.8999 4.60408 56.0588 4.29555C56.2271 3.98701 56.4421 3.73458 56.7039 3.53824C56.9751 3.33255 57.2743 3.18296 57.6015 3.08946C57.9381 2.99597 58.2793 2.94922 58.6253 2.94922C58.9805 2.94922 59.3218 3.00064 59.649 3.10349C59.9856 3.19698 60.2801 3.34657 60.5326 3.55226C60.785 3.7486 60.986 4.00104 61.1356 4.30957C61.2945 4.60876 61.374 4.95937 61.374 5.36139C61.374 5.67928 61.3179 5.97379 61.2057 6.24492C61.1029 6.50671 60.958 6.7498 60.771 6.97419C60.5933 7.18923 60.3783 7.38089 60.1259 7.54918C59.8828 7.71747 59.621 7.86707 59.3405 7.99796L60.9673 9.6949L62.1173 7.88576H64.0386L62.0472 10.7607ZM58.6533 4.30957C58.3261 4.30957 58.0503 4.41242 57.8259 4.61811C57.6015 4.8238 57.4893 5.09026 57.4893 5.41749C57.4893 5.69798 57.5641 5.96911 57.7137 6.2309C57.8726 6.49269 58.0923 6.7498 58.3728 7.00224C58.5692 6.91809 58.7515 6.82459 58.9198 6.72175C59.0974 6.6189 59.2517 6.50204 59.3826 6.37114C59.5135 6.24025 59.6163 6.09533 59.6911 5.93639C59.7659 5.77745 59.8033 5.60448 59.8033 5.41749C59.8033 5.11831 59.6958 4.8612 59.4807 4.64616C59.2657 4.42177 58.9899 4.30957 58.6533 4.30957ZM57.8399 8.69917C57.6529 8.76462 57.4753 8.84409 57.307 8.93759C57.148 9.03108 57.0031 9.14328 56.8722 9.27417C56.7507 9.40506 56.6525 9.564 56.5777 9.75099C56.5029 9.92863 56.4655 10.1343 56.4655 10.3681C56.4655 10.6111 56.5123 10.8309 56.6058 11.0272C56.7086 11.2235 56.8395 11.3872 56.9984 11.5181C57.1574 11.6489 57.335 11.7518 57.5314 11.8266C57.7277 11.892 57.9194 11.9248 58.1064 11.9248C58.5177 11.9248 58.8683 11.8359 59.1582 11.6583C59.448 11.4807 59.7145 11.2282 59.9576 10.901L57.8399 8.69917Z" fill="currentColor"></path><path d="M70.4507 3.20166H72.7927L77.4067 10.6345H77.4348V3.20166H79.2018V13.1308H76.958L72.2458 5.45956H72.2177V13.1308H70.4507V3.20166Z" fill="currentColor"></path><path d="M44.475 18.8007C44.2751 18.5225 44.0186 18.3009 43.7057 18.1357C43.3928 17.9619 43.0147 17.875 42.5714 17.875C42.3454 17.875 42.1151 17.9097 41.8804 17.9793C41.6457 18.0488 41.4327 18.1575 41.2415 18.3052C41.0503 18.4443 40.8938 18.6225 40.7721 18.8398C40.6591 19.0571 40.6026 19.3135 40.6026 19.6091C40.6026 19.9046 40.6591 20.148 40.7721 20.3392C40.8851 20.5304 41.0329 20.6956 41.2154 20.8346C41.4067 20.965 41.6196 21.0737 41.8543 21.1606C42.0977 21.2475 42.3498 21.3344 42.6105 21.4214C42.9321 21.5257 43.2537 21.6387 43.5753 21.7604C43.9056 21.882 44.2012 22.0428 44.4619 22.2428C44.7227 22.434 44.9357 22.6817 45.1008 22.9859C45.266 23.2815 45.3485 23.6596 45.3485 24.1203C45.3485 24.581 45.2573 24.9808 45.0747 25.3198C44.9009 25.6501 44.6706 25.9239 44.3837 26.1412C44.1056 26.3585 43.784 26.5193 43.4189 26.6236C43.0625 26.7279 42.7018 26.7801 42.3367 26.7801C42.0586 26.7801 41.7804 26.7496 41.5023 26.6888C41.2241 26.6366 40.959 26.5541 40.7069 26.4411C40.4549 26.3281 40.2202 26.1846 40.0029 26.0108C39.7856 25.837 39.5943 25.637 39.4292 25.411L40.2376 24.8113C40.4375 25.1416 40.7156 25.4197 41.072 25.6457C41.4371 25.863 41.863 25.9717 42.3498 25.9717C42.5844 25.9717 42.8235 25.9369 43.0669 25.8674C43.3102 25.7892 43.5275 25.6762 43.7188 25.5284C43.9187 25.3719 44.0795 25.1851 44.2012 24.9678C44.3316 24.7418 44.3968 24.481 44.3968 24.1855C44.3968 23.8638 44.3316 23.5987 44.2012 23.3901C44.0795 23.1728 43.9143 22.9946 43.7057 22.8556C43.4971 22.7078 43.2581 22.5861 42.9886 22.4905C42.7192 22.3949 42.4367 22.2993 42.1411 22.2037C41.8369 22.108 41.537 21.9994 41.2415 21.8777C40.946 21.756 40.6809 21.5996 40.4462 21.4083C40.2115 21.2084 40.0203 20.965 39.8725 20.6782C39.7334 20.3913 39.6639 20.0393 39.6639 19.6221C39.6639 19.1788 39.7508 18.7963 39.9247 18.4747C40.1072 18.1531 40.3419 17.888 40.6287 17.6794C40.9156 17.4708 41.2328 17.3187 41.5805 17.2231C41.9282 17.1274 42.2715 17.0796 42.6105 17.0796C43.2364 17.0796 43.7709 17.1926 44.2142 17.4186C44.6575 17.6359 44.9922 17.8967 45.2182 18.2009L44.475 18.8007Z" fill="currentColor"></path><path d="M50.6861 21.1867H48.965V24.7461C48.965 24.9721 48.9867 25.159 49.0302 25.3067C49.0737 25.4545 49.1345 25.5719 49.2127 25.6588C49.2997 25.737 49.3996 25.7935 49.5126 25.8283C49.6256 25.8543 49.7473 25.8674 49.8777 25.8674C49.9994 25.8674 50.1254 25.85 50.2558 25.8152C50.3949 25.7805 50.5253 25.7327 50.6469 25.6718L50.6861 26.4411C50.5296 26.5019 50.3644 26.5454 50.1906 26.5714C50.0255 26.6062 49.8429 26.6236 49.643 26.6236C49.4778 26.6236 49.304 26.6019 49.1215 26.5584C48.9389 26.5149 48.7694 26.4324 48.613 26.3107C48.4565 26.189 48.3261 26.0238 48.2218 25.8152C48.1262 25.6066 48.0784 25.3328 48.0784 24.9938V21.1867H46.8137V20.4435H48.0784V18.7225H48.965V20.4435H50.6861V21.1867Z" fill="currentColor"></path><path d="M58.8371 23.4944C58.8371 23.9551 58.7545 24.381 58.5893 24.7722C58.4329 25.1633 58.2112 25.5023 57.9244 25.7892C57.6376 26.076 57.2942 26.302 56.8944 26.4671C56.4945 26.6236 56.0556 26.7018 55.5775 26.7018C55.1081 26.7018 54.6735 26.6236 54.2737 26.4671C53.8739 26.302 53.5305 26.076 53.2437 25.7892C52.9568 25.5023 52.7308 25.1633 52.5657 24.7722C52.4092 24.381 52.331 23.9551 52.331 23.4944C52.331 23.0338 52.4092 22.6078 52.5657 22.2167C52.7308 21.8255 52.9568 21.4866 53.2437 21.1997C53.5305 20.9129 53.8739 20.6912 54.2737 20.5348C54.6735 20.3696 55.1081 20.287 55.5775 20.287C56.0556 20.287 56.4945 20.3696 56.8944 20.5348C57.2942 20.6912 57.6376 20.9129 57.9244 21.1997C58.2112 21.4866 58.4329 21.8255 58.5893 22.2167C58.7545 22.6078 58.8371 23.0338 58.8371 23.4944ZM57.8983 23.4944C57.8983 23.1554 57.8418 22.8382 57.7288 22.5426C57.6245 22.2384 57.4724 21.9777 57.2725 21.7604C57.0726 21.5344 56.8292 21.3562 56.5423 21.2258C56.2555 21.0954 55.9339 21.0302 55.5775 21.0302C55.2211 21.0302 54.8995 21.0954 54.6127 21.2258C54.3345 21.3562 54.0955 21.5344 53.8956 21.7604C53.6957 21.9777 53.5392 22.2384 53.4262 22.5426C53.3219 22.8382 53.2698 23.1554 53.2698 23.4944C53.2698 23.8334 53.3219 24.155 53.4262 24.4593C53.5392 24.7548 53.6957 25.0156 53.8956 25.2416C54.0955 25.4589 54.3345 25.6327 54.6127 25.7631C54.8995 25.8848 55.2211 25.9456 55.5775 25.9456C55.9339 25.9456 56.2555 25.8848 56.5423 25.7631C56.8292 25.6327 57.0726 25.4589 57.2725 25.2416C57.4724 25.0156 57.6245 24.7548 57.7288 24.4593C57.8418 24.155 57.8983 23.8334 57.8983 23.4944Z" fill="currentColor"></path><path d="M62.2415 20.4435C62.2589 20.6086 62.2719 20.7912 62.2806 20.9911C62.2893 21.191 62.2936 21.3562 62.2936 21.4866H62.3197C62.4935 21.1302 62.776 20.8433 63.1672 20.626C63.5583 20.4 63.9712 20.287 64.4058 20.287C65.1794 20.287 65.7574 20.5174 66.1399 20.9781C66.531 21.4387 66.7266 22.0472 66.7266 22.8034V26.5454H65.84V23.1685C65.84 22.8469 65.8139 22.5557 65.7618 22.2949C65.7096 22.0342 65.6184 21.8125 65.488 21.63C65.3663 21.4387 65.1968 21.291 64.9795 21.1867C64.7709 21.0824 64.5058 21.0302 64.1842 21.0302C63.9495 21.0302 63.7191 21.078 63.4931 21.1736C63.2758 21.2692 63.0803 21.417 62.9064 21.6169C62.7326 21.8082 62.5935 22.0559 62.4892 22.3601C62.3849 22.6556 62.3327 23.0077 62.3327 23.4162V26.5454H61.4461V21.7864C61.4461 21.6213 61.4418 21.4083 61.4331 21.1476C61.4244 20.8868 61.4114 20.6521 61.394 20.4435H62.2415Z" fill="currentColor"></path><path d="M74.3779 23.0251C74.3518 22.4514 74.1649 21.9777 73.8173 21.6039C73.4783 21.2214 72.9915 21.0302 72.357 21.0302C72.0614 21.0302 71.7876 21.0867 71.5356 21.1997C71.2835 21.304 71.0618 21.4518 70.8706 21.643C70.6794 21.8255 70.5273 22.0385 70.4143 22.2819C70.3013 22.5166 70.2361 22.7643 70.2187 23.0251H74.3779ZM75.2775 23.3119C75.2775 23.3727 75.2775 23.4379 75.2775 23.5075C75.2775 23.577 75.2732 23.6509 75.2645 23.7291H70.2057C70.2144 24.0333 70.2752 24.3202 70.3882 24.5896C70.5012 24.8591 70.6577 25.0938 70.8576 25.2937C71.0575 25.4936 71.2922 25.6544 71.5616 25.7761C71.8311 25.8891 72.1223 25.9456 72.4352 25.9456C72.8959 25.9456 73.2914 25.8413 73.6217 25.6327C73.9607 25.4154 74.2171 25.1677 74.3909 24.8895L75.0559 25.411C74.6908 25.8717 74.2866 26.202 73.8433 26.402C73.4087 26.6019 72.9393 26.7018 72.4352 26.7018C71.9832 26.7018 71.5616 26.6236 71.1705 26.4671C70.788 26.302 70.4577 26.076 70.1796 25.7892C69.9014 25.5023 69.6798 25.1633 69.5146 24.7722C69.3582 24.381 69.28 23.9551 69.28 23.4944C69.28 23.0338 69.3582 22.6078 69.5146 22.2167C69.6711 21.8255 69.8884 21.4866 70.1666 21.1997C70.4447 20.9129 70.7707 20.6912 71.1444 20.5348C71.5182 20.3696 71.9224 20.287 72.357 20.287C72.835 20.287 73.2566 20.3696 73.6217 20.5348C73.9868 20.6912 74.291 20.9085 74.5344 21.1867C74.7777 21.4561 74.9603 21.7734 75.082 22.1385C75.2123 22.5035 75.2775 22.8947 75.2775 23.3119Z" fill="currentColor"></path><path d="M86.4621 24.9547H86.4751L89.5652 17.3143H90.9994V26.5454H90.0606V18.5269H90.0345L86.6968 26.5454H86.2013L82.8635 18.5269H82.8375V26.5454H81.8987V17.3143H83.3329L86.4621 24.9547Z" fill="currentColor"></path><path d="M97.9425 22.6078C97.9425 22.0776 97.8034 21.6821 97.5253 21.4214C97.2471 21.1606 96.843 21.0302 96.3127 21.0302C95.9477 21.0302 95.6087 21.0954 95.2958 21.2258C94.9828 21.3562 94.7177 21.53 94.5004 21.7473L94.005 21.1606C94.2571 20.9085 94.5874 20.6999 94.9959 20.5348C95.4131 20.3696 95.8825 20.287 96.404 20.287C96.7343 20.287 97.0429 20.3348 97.3297 20.4305C97.6166 20.5174 97.8686 20.6521 98.0859 20.8346C98.3032 21.0172 98.4727 21.2475 98.5944 21.5257C98.7161 21.8038 98.777 22.1298 98.777 22.5035V25.1764C98.777 25.411 98.7857 25.6544 98.803 25.9065C98.8204 26.1586 98.8465 26.3715 98.8813 26.5454H98.0859C98.0599 26.3976 98.0381 26.2368 98.0207 26.063C98.0034 25.8891 97.9947 25.7196 97.9947 25.5545H97.9686C97.6904 25.963 97.3732 26.2585 97.0168 26.4411C96.6691 26.6149 96.2476 26.7018 95.7521 26.7018C95.5174 26.7018 95.274 26.6671 95.022 26.5975C94.7786 26.5367 94.5526 26.4324 94.344 26.2846C94.1441 26.1368 93.9746 25.9456 93.8355 25.7109C93.7051 25.4762 93.6399 25.1894 93.6399 24.8504C93.6399 24.381 93.7573 24.0116 93.9919 23.7422C94.2353 23.464 94.5569 23.2597 94.9568 23.1294C95.3566 22.9903 95.8129 22.9034 96.3258 22.8686C96.8473 22.8251 97.3862 22.8034 97.9425 22.8034V22.6078ZM97.6818 23.4944C97.3167 23.4944 96.9473 23.5118 96.5735 23.5466C96.2084 23.5727 95.8738 23.6335 95.5696 23.7291C95.274 23.816 95.0307 23.9464 94.8394 24.1203C94.6482 24.2941 94.5526 24.5245 94.5526 24.8113C94.5526 25.0286 94.5917 25.2111 94.6699 25.3589C94.7569 25.5067 94.8699 25.6284 95.0089 25.724C95.148 25.8109 95.3001 25.8761 95.4653 25.9195C95.6391 25.9543 95.8129 25.9717 95.9868 25.9717C96.2997 25.9717 96.5779 25.9195 96.8212 25.8152C97.0646 25.7022 97.2689 25.5545 97.434 25.3719C97.5992 25.1807 97.7252 24.9634 97.8121 24.72C97.8991 24.4766 97.9425 24.2202 97.9425 23.9508V23.4944H97.6818Z" fill="currentColor"></path><path d="M105.009 21.8907C104.878 21.6387 104.678 21.4344 104.409 21.2779C104.148 21.1128 103.848 21.0302 103.509 21.0302C103.353 21.0302 103.196 21.0476 103.04 21.0824C102.883 21.1171 102.744 21.1736 102.623 21.2519C102.501 21.3301 102.401 21.4301 102.323 21.5517C102.253 21.6734 102.219 21.8169 102.219 21.982C102.219 22.2688 102.336 22.4905 102.571 22.647C102.805 22.7947 103.175 22.9208 103.679 23.0251C104.4 23.1728 104.93 23.3901 105.269 23.677C105.617 23.9551 105.791 24.3332 105.791 24.8113C105.791 25.159 105.721 25.4545 105.582 25.6979C105.452 25.9326 105.278 26.1281 105.061 26.2846C104.844 26.4324 104.596 26.5367 104.318 26.5975C104.048 26.6671 103.774 26.7018 103.496 26.7018C103.036 26.7018 102.588 26.6062 102.153 26.415C101.719 26.2238 101.362 25.9239 101.084 25.5154L101.788 24.9938C101.945 25.2633 102.175 25.4893 102.479 25.6718C102.784 25.8543 103.118 25.9456 103.483 25.9456C103.674 25.9456 103.857 25.9282 104.031 25.8935C104.205 25.8587 104.357 25.7978 104.487 25.7109C104.618 25.624 104.722 25.5154 104.8 25.385C104.878 25.2459 104.917 25.0764 104.917 24.8765C104.917 24.5549 104.761 24.3158 104.448 24.1594C104.144 23.9942 103.701 23.8421 103.118 23.703C102.936 23.6596 102.74 23.6074 102.531 23.5466C102.332 23.477 102.145 23.3814 101.971 23.2597C101.797 23.1294 101.654 22.9686 101.541 22.7773C101.428 22.5861 101.371 22.3471 101.371 22.0602C101.371 21.7473 101.432 21.4822 101.554 21.2649C101.675 21.0389 101.836 20.8564 102.036 20.7173C102.245 20.5695 102.479 20.4609 102.74 20.3913C103.001 20.3218 103.27 20.287 103.548 20.287C103.974 20.287 104.387 20.3827 104.787 20.5739C105.187 20.7651 105.487 21.0346 105.687 21.3822L105.009 21.8907Z" fill="currentColor"></path><path d="M114.32 23.4944C114.32 23.9551 114.237 24.381 114.072 24.7722C113.915 25.1633 113.694 25.5023 113.407 25.7892C113.12 26.076 112.777 26.302 112.377 26.4671C111.977 26.6236 111.538 26.7018 111.06 26.7018C110.591 26.7018 110.156 26.6236 109.756 26.4671C109.356 26.302 109.013 26.076 108.726 25.7892C108.439 25.5023 108.213 25.1633 108.048 24.7722C107.892 24.381 107.813 23.9551 107.813 23.4944C107.813 23.0338 107.892 22.6078 108.048 22.2167C108.213 21.8255 108.439 21.4866 108.726 21.1997C109.013 20.9129 109.356 20.6912 109.756 20.5348C110.156 20.3696 110.591 20.287 111.06 20.287C111.538 20.287 111.977 20.3696 112.377 20.5348C112.777 20.6912 113.12 20.9129 113.407 21.1997C113.694 21.4866 113.915 21.8255 114.072 22.2167C114.237 22.6078 114.32 23.0338 114.32 23.4944ZM113.381 23.4944C113.381 23.1554 113.324 22.8382 113.211 22.5426C113.107 22.2384 112.955 21.9777 112.755 21.7604C112.555 21.5344 112.312 21.3562 112.025 21.2258C111.738 21.0954 111.416 21.0302 111.06 21.0302C110.704 21.0302 110.382 21.0954 110.095 21.2258C109.817 21.3562 109.578 21.5344 109.378 21.7604C109.178 21.9777 109.022 22.2384 108.909 22.5426C108.804 22.8382 108.752 23.1554 108.752 23.4944C108.752 23.8334 108.804 24.155 108.909 24.4593C109.022 24.7548 109.178 25.0156 109.378 25.2416C109.578 25.4589 109.817 25.6327 110.095 25.7631C110.382 25.8848 110.704 25.9456 111.06 25.9456C111.416 25.9456 111.738 25.8848 112.025 25.7631C112.312 25.6327 112.555 25.4589 112.755 25.2416C112.955 25.0156 113.107 24.7548 113.211 24.4593C113.324 24.155 113.381 23.8334 113.381 23.4944Z" fill="currentColor"></path><path d="M117.724 20.4435C117.741 20.6086 117.754 20.7912 117.763 20.9911C117.772 21.191 117.776 21.3562 117.776 21.4866H117.802C117.976 21.1302 118.258 20.8433 118.65 20.626C119.041 20.4 119.454 20.287 119.888 20.287C120.662 20.287 121.24 20.5174 121.622 20.9781C122.013 21.4387 122.209 22.0472 122.209 22.8034V26.5454H121.322V23.1685C121.322 22.8469 121.296 22.5557 121.244 22.2949C121.192 22.0342 121.101 21.8125 120.97 21.63C120.849 21.4387 120.679 21.291 120.462 21.1867C120.253 21.0824 119.988 21.0302 119.667 21.0302C119.432 21.0302 119.202 21.078 118.976 21.1736C118.758 21.2692 118.563 21.417 118.389 21.6169C118.215 21.8082 118.076 22.0559 117.972 22.3601C117.867 22.6556 117.815 23.0077 117.815 23.4162V26.5454H116.929V21.7864C116.929 21.6213 116.924 21.4083 116.916 21.1476C116.907 20.8868 116.894 20.6521 116.876 20.4435H117.724Z" fill="currentColor"></path><path d="M125.206 21.7864C125.206 21.6213 125.201 21.4083 125.193 21.1476C125.184 20.8868 125.171 20.6521 125.154 20.4435H126.001C126.018 20.6086 126.031 20.7912 126.04 20.9911C126.049 21.191 126.053 21.3562 126.053 21.4866H126.079C126.253 21.1302 126.514 20.8433 126.862 20.626C127.209 20.4 127.6 20.287 128.035 20.287C128.148 20.287 128.248 20.2914 128.335 20.3001C128.43 20.3088 128.526 20.3262 128.622 20.3522L128.504 21.1867C128.452 21.1693 128.365 21.1519 128.244 21.1345C128.122 21.1171 128 21.1084 127.879 21.1084C127.644 21.1084 127.418 21.1519 127.201 21.2388C126.983 21.3257 126.792 21.4648 126.627 21.656C126.47 21.8386 126.34 22.0776 126.236 22.3731C126.14 22.66 126.092 23.0077 126.092 23.4162V26.5454H125.206V21.7864Z" fill="currentColor"></path><path d="M132.704 25.5936H132.73L134.621 20.4435H135.586L132.548 28.123C132.365 28.5924 132.131 28.9661 131.844 29.2443C131.566 29.5311 131.162 29.6745 130.631 29.6745C130.362 29.6745 130.097 29.6485 129.836 29.5963L129.927 28.7879C130.136 28.8575 130.353 28.8922 130.579 28.8922C130.883 28.8922 131.122 28.7966 131.296 28.6054C131.47 28.4229 131.622 28.1578 131.753 27.8101L132.248 26.5323L129.64 20.4435H130.631L132.704 25.5936Z" fill="currentColor"></path><path d="M142.624 25.7109H146.927V26.5454H141.686V17.3143H142.624V25.7109Z" fill="currentColor"></path><path d="M149.972 25.7109H154.275V26.5454H149.033V17.3143H149.972V25.7109Z" fill="currentColor"></path><path d="M163.757 25.059C163.601 25.2937 163.409 25.5154 163.183 25.724C162.966 25.9326 162.71 26.1151 162.414 26.2716C162.127 26.428 161.806 26.5497 161.449 26.6366C161.102 26.7323 160.719 26.7801 160.302 26.7801C159.607 26.7801 158.963 26.6584 158.372 26.415C157.781 26.1716 157.273 25.837 156.847 25.411C156.421 24.9764 156.086 24.4636 155.843 23.8725C155.608 23.2815 155.491 22.6339 155.491 21.9298C155.491 21.2258 155.612 20.5782 155.856 19.9872C156.099 19.3961 156.434 18.8876 156.86 18.4617C157.294 18.0271 157.803 17.6881 158.385 17.4447C158.976 17.2013 159.615 17.0796 160.302 17.0796C160.641 17.0796 160.971 17.1144 161.293 17.1839C161.623 17.2535 161.932 17.3534 162.219 17.4838C162.505 17.6055 162.766 17.7576 163.001 17.9402C163.235 18.114 163.431 18.3139 163.588 18.5399L162.805 19.1136C162.71 18.9658 162.579 18.8181 162.414 18.6703C162.258 18.5225 162.071 18.3922 161.853 18.2792C161.636 18.1662 161.397 18.0749 161.136 18.0054C160.884 17.9358 160.61 17.901 160.315 17.901C159.715 17.901 159.176 18.0097 158.698 18.227C158.229 18.4443 157.829 18.7398 157.499 19.1136C157.168 19.4787 156.916 19.9046 156.742 20.3913C156.569 20.8781 156.482 21.3909 156.482 21.9298C156.482 22.4688 156.569 22.9816 156.742 23.4684C156.925 23.9551 157.181 24.3854 157.512 24.7591C157.842 25.1242 158.242 25.4154 158.711 25.6327C159.189 25.85 159.724 25.9587 160.315 25.9587C160.845 25.9587 161.349 25.85 161.827 25.6327C162.305 25.4154 162.705 25.0677 163.027 24.5896L163.757 25.059Z" fill="currentColor"></path></svg>