<?xml version="1.0" encoding="UTF-8"?>
<svg xmlns="http://www.w3.org/2000/svg" width="12" height="13" viewBox="0 0 12 13" fill="none">
  <path d="M7.65078 10.2001H4.35078C2.25078 10.2001 0.550781 8.50006 0.550781 6.40006V5.50006C0.550781 5.22506 0.775781 5.00006 1.05078 5.00006H10.9758C11.2508 5.00006 11.4758 5.22506 11.4758 5.50006V6.40006C11.4508 8.50006 9.75078 10.2001 7.65078 10.2001ZM1.52578 6.00006V6.40006C1.52578 7.97506 2.80078 9.22506 4.35078 9.22506H7.62578C9.20078 9.22506 10.4508 7.95006 10.4508 6.40006V6.00006H1.52578Z" fill="#4F4F4F"></path>
  <path d="M3.97461 10.775C3.69961 10.775 3.47461 10.55 3.47461 10.275V9.72504C3.47461 9.45004 3.69961 9.22504 3.97461 9.22504C4.24961 9.22504 4.47461 9.45004 4.47461 9.72504V10.275C4.47461 10.55 4.24961 10.775 3.97461 10.775Z" fill="#4F4F4F"></path>
  <path d="M8.02539 10.775C7.75039 10.775 7.52539 10.55 7.52539 10.275V9.72504C7.52539 9.45004 7.75039 9.22504 8.02539 9.22504C8.30039 9.22504 8.52539 9.45004 8.52539 9.72504V10.275C8.50039 10.55 8.27539 10.775 8.02539 10.775Z" fill="#4F4F4F"></path>
  <path d="M11.375 6H0.625C0.35 6 0.125 5.775 0.125 5.5C0.125 5.225 0.35 5 0.625 5H11.4C11.675 5 11.9 5.225 11.9 5.5C11.9 5.775 11.65 6 11.375 6Z" fill="#4F4F4F"></path>
  <path d="M10.9754 5.80001C10.7004 5.80001 10.4754 5.57501 10.4754 5.30001V3.52501C10.4754 3.32501 10.3254 3.17501 10.1254 3.17501C9.92539 3.17501 9.77539 3.32501 9.77539 3.52501C9.77539 3.80001 9.55039 4.02501 9.27539 4.02501C9.00039 4.02501 8.77539 3.80001 8.77539 3.52501C8.77539 2.80001 9.37539 2.20001 10.1004 2.20001C10.8254 2.20001 11.4254 2.80001 11.4254 3.52501V5.30001C11.4504 5.60001 11.2254 5.80001 10.9754 5.80001Z" fill="#4F4F4F"></path>
</svg>
