<?xml version="1.0" encoding="UTF-8"?>
<svg xmlns="http://www.w3.org/2000/svg" width="12" height="13" viewBox="0 0 12 13" fill="none">
  <g clip-path="url(#clip0_194_310)">
    <path d="M10.6008 12.375H4.92578C4.65078 12.375 4.42578 12.15 4.42578 11.875C4.42578 11.6 4.65078 11.375 4.92578 11.375H10.1008V1.60001H5.42578V4.10001C5.42578 4.37501 5.20078 4.60001 4.92578 4.60001C4.65078 4.60001 4.42578 4.37501 4.42578 4.10001V1.10001C4.42578 0.825006 4.65078 0.600006 4.92578 0.600006H10.6008C10.8758 0.600006 11.1008 0.825006 11.1008 1.10001V11.875C11.0758 12.15 10.8508 12.375 10.6008 12.375Z" fill="#4F4F4F"></path>
    <path d="M7.07539 12.375H1.40039C1.12539 12.375 0.900391 12.15 0.900391 11.875V5.30001C0.900391 5.07501 1.05039 4.90001 1.25039 4.82501L6.92539 3.10001C7.07539 3.05001 7.22539 3.07501 7.35039 3.17501C7.47539 3.27501 7.55039 3.42501 7.55039 3.57501V11.875C7.57539 12.15 7.35039 12.375 7.07539 12.375ZM1.90039 11.4H6.57539V4.25001L1.90039 5.65001V11.4Z" fill="#4F4F4F"></path>
    <path d="M11.375 12.375H0.625C0.35 12.375 0.125 12.15 0.125 11.875C0.125 11.6 0.35 11.375 0.625 11.375H11.4C11.675 11.375 11.9 11.6 11.9 11.875C11.9 12.15 11.65 12.375 11.375 12.375Z" fill="#4F4F4F"></path>
    <path d="M4.25 12.375C3.975 12.375 3.75 12.15 3.75 11.875V9.55002C3.75 9.27502 3.975 9.05002 4.25 9.05002C4.525 9.05002 4.75 9.27502 4.75 9.55002V11.875C4.725 12.15 4.5 12.375 4.25 12.375Z" fill="#4F4F4F"></path>
  </g>
  <defs>
    <clipPath id="clip0_194_310">
      <rect width="12" height="12" fill="white" transform="translate(0 0.5)"></rect>
    </clipPath>
  </defs>
</svg>
