<?xml version="1.0" encoding="UTF-8"?>
<svg xmlns="http://www.w3.org/2000/svg" width="12" height="13" viewBox="0 0 12 13" fill="none">
  <g clip-path="url(#clip0_194_299)">
    <path d="M11.377 12.375H0.626953C0.351953 12.375 0.126953 12.15 0.126953 11.875V5.625C0.126953 5.35 0.351953 5.125 0.626953 5.125H11.402C11.677 5.125 11.902 5.35 11.902 5.625V11.9C11.877 12.15 11.652 12.375 11.377 12.375ZM1.10195 11.4H10.902V6.1H1.10195V11.4Z" fill="#4F4F4F"></path>
    <path d="M8.82578 6.09995H3.17578C2.90078 6.09995 2.67578 5.87495 2.67578 5.59995V2.42495C2.67578 2.22495 2.77578 2.07495 2.95078 1.97495L5.75078 0.674951C5.87578 0.624951 6.02578 0.624951 6.17578 0.674951L9.02578 1.97495C9.20078 2.04995 9.30078 2.22495 9.30078 2.42495V5.62495C9.30078 5.89995 9.07578 6.09995 8.82578 6.09995ZM3.67578 5.12495H8.32578V2.72495L5.95078 1.64995L3.67578 2.72495V5.12495Z" fill="#4F4F4F"></path>
    <path d="M7.55117 12.3749H4.45117C4.17617 12.3749 3.95117 12.1499 3.95117 11.8749V9.4499C3.95117 8.3249 4.87617 7.3999 6.00117 7.3999C7.12617 7.3999 8.05117 8.3249 8.05117 9.4499V11.8749C8.05117 12.1499 7.82617 12.3749 7.55117 12.3749ZM4.95117 11.3999H7.07617V9.4749C7.07617 8.8999 6.60117 8.4249 6.02617 8.4249C5.45117 8.4249 4.97617 8.8999 4.97617 9.4749V11.3999H4.95117Z" fill="#4F4F4F"></path>
  </g>
  <defs>
    <clipPath id="clip0_194_299">
      <rect width="12" height="12" fill="white" transform="translate(0 0.5)"></rect>
    </clipPath>
  </defs>
</svg>
