<svg width="193" height="30" viewBox="0 0 193 30" fill="none" xmlns="http://www.w3.org/2000/svg">
<g clip-path="url(#clip0_2969_470)">
<path d="M9.63997 29.5319C8.5633 29.5319 7.45497 29.4242 6.31497 29.2089C5.17497 29.0062 4.1173 28.7592 3.14197 28.4679C2.16664 28.1639 1.39397 27.8726 0.823975 27.5939L1.39397 22.4259C2.28064 22.8566 3.2053 23.2556 4.16797 23.6229C5.13064 23.9902 6.11864 24.2879 7.13197 24.5159C8.1453 24.7439 9.1713 24.8579 10.21 24.8579C11.502 24.8579 12.5407 24.6046 13.326 24.0979C14.1113 23.5912 14.504 22.8186 14.504 21.7799C14.504 20.9819 14.2823 20.3422 13.839 19.8609C13.3957 19.3669 12.718 18.9299 11.806 18.5499C10.894 18.1572 9.72865 17.7139 8.30998 17.2199C6.89131 16.7259 5.6183 16.1686 4.49097 15.5479C3.36364 14.9146 2.47064 14.1166 1.81197 13.1539C1.1533 12.1912 0.823975 10.9626 0.823975 9.46792C0.823975 7.99859 1.18497 6.69392 1.90697 5.55392C2.62897 4.40125 3.70564 3.50192 5.13697 2.85592C6.58097 2.19725 8.3733 1.86792 10.514 1.86792C12.1353 1.86792 13.6807 2.05159 15.15 2.41892C16.6193 2.77359 17.8733 3.15992 18.912 3.57792L18.418 8.55592C16.9233 7.88459 15.5173 7.37792 14.2 7.03592C12.8953 6.68125 11.5653 6.50392 10.21 6.50392C8.7913 6.50392 7.69564 6.73825 6.92297 7.20692C6.1503 7.67559 5.76397 8.37859 5.76397 9.31592C5.76397 10.0632 5.9793 10.6649 6.40997 11.1209C6.84064 11.5769 7.45498 11.9696 8.25297 12.2989C9.05097 12.6156 10.0073 12.9512 11.122 13.3059C13.0473 13.9139 14.6623 14.5852 15.967 15.3199C17.2843 16.0419 18.2723 16.9222 18.931 17.9609C19.6023 18.9869 19.938 20.2599 19.938 21.7799C19.938 22.5399 19.8177 23.3696 19.577 24.2689C19.3363 25.1556 18.8613 25.9979 18.152 26.7959C17.4427 27.5939 16.404 28.2526 15.036 28.7719C13.6807 29.2786 11.882 29.5319 9.63997 29.5319ZM28.9957 29.3799C27.805 29.3799 26.836 29.1392 26.0887 28.6579C25.3413 28.1639 24.7903 27.5369 24.4357 26.7769C24.081 26.0169 23.9037 25.2252 23.9037 24.4019V13.8759H21.2057L21.6237 9.99992H23.9037V5.81992L28.6157 5.32592V9.99992H32.7957V13.8759H28.6157V22.4639C28.6157 23.4266 28.6727 24.1232 28.7867 24.5539C28.9007 24.9719 29.1603 25.2379 29.5657 25.3519C29.971 25.4532 30.617 25.5039 31.5037 25.5039H32.7957L32.3777 29.3799H28.9957ZM45.0222 29.3799C42.7295 29.3799 40.8168 28.9239 39.2842 28.0119C37.7642 27.0872 36.6242 25.8712 35.8642 24.3639C35.1042 22.8439 34.7242 21.1846 34.7242 19.3859C34.7242 17.6506 35.0788 16.0482 35.7882 14.5789C36.5102 13.1096 37.5615 11.9316 38.9422 11.0449C40.3228 10.1456 42.0075 9.69592 43.9962 9.69592C45.8202 9.69592 47.3402 10.0696 48.5562 10.8169C49.7722 11.5642 50.6842 12.5649 51.2922 13.8189C51.9002 15.0602 52.2042 16.4346 52.2042 17.9419C52.2042 18.3599 52.1788 18.7842 52.1282 19.2149C52.0775 19.6329 52.0015 20.0699 51.9002 20.5259H39.6262C39.8035 21.7039 40.1708 22.6602 40.7282 23.3949C41.2982 24.1169 41.9885 24.6489 42.7992 24.9909C43.6225 25.3329 44.5028 25.5039 45.4402 25.5039C46.5422 25.5039 47.5682 25.3646 48.5182 25.0859C49.4682 24.7946 50.3422 24.4146 51.1402 23.9459L51.3682 27.9359C50.6462 28.3159 49.7468 28.6516 48.6702 28.9429C47.5935 29.2342 46.3775 29.3799 45.0222 29.3799ZM39.7402 17.3339H47.4162C47.4162 16.7639 47.3085 16.1939 47.0932 15.6239C46.8778 15.0412 46.5168 14.5536 46.0102 14.1609C45.5162 13.7682 44.8448 13.5719 43.9962 13.5719C42.7802 13.5719 41.8238 13.9266 41.1272 14.6359C40.4305 15.3452 39.9682 16.2446 39.7402 17.3339ZM55.4208 28.9999V9.99992H59.8288L59.9428 12.0139C60.4241 11.4819 61.1018 10.9499 61.9758 10.4179C62.8498 9.88592 63.8061 9.61992 64.8448 9.61992C65.1488 9.61992 65.4275 9.64525 65.6808 9.69592L65.3388 14.3319C65.0601 14.2559 64.7815 14.2052 64.5028 14.1799C64.2368 14.1546 63.9708 14.1419 63.7048 14.1419C62.9068 14.1419 62.1785 14.3256 61.5198 14.6929C60.8611 15.0602 60.3988 15.5099 60.1328 16.0419V28.9999H55.4208ZM76.7878 29.3799C74.4951 29.3799 72.5824 28.9239 71.0498 28.0119C69.5298 27.0872 68.3898 25.8712 67.6298 24.3639C66.8698 22.8439 66.4898 21.1846 66.4898 19.3859C66.4898 17.6506 66.8444 16.0482 67.5538 14.5789C68.2758 13.1096 69.3271 11.9316 70.7078 11.0449C72.0884 10.1456 73.7731 9.69592 75.7618 9.69592C77.5858 9.69592 79.1058 10.0696 80.3218 10.8169C81.5378 11.5642 82.4498 12.5649 83.0578 13.8189C83.6658 15.0602 83.9698 16.4346 83.9698 17.9419C83.9698 18.3599 83.9444 18.7842 83.8938 19.2149C83.8431 19.6329 83.7671 20.0699 83.6658 20.5259H71.3918C71.5691 21.7039 71.9364 22.6602 72.4938 23.3949C73.0638 24.1169 73.7541 24.6489 74.5648 24.9909C75.3881 25.3329 76.2684 25.5039 77.2058 25.5039C78.3078 25.5039 79.3338 25.3646 80.2838 25.0859C81.2338 24.7946 82.1078 24.4146 82.9058 23.9459L83.1338 27.9359C82.4118 28.3159 81.5124 28.6516 80.4358 28.9429C79.3591 29.2342 78.1431 29.3799 76.7878 29.3799ZM71.5058 17.3339H79.1818C79.1818 16.7639 79.0741 16.1939 78.8588 15.6239C78.6434 15.0412 78.2824 14.5536 77.7758 14.1609C77.2818 13.7682 76.6104 13.5719 75.7618 13.5719C74.5458 13.5719 73.5894 13.9266 72.8928 14.6359C72.1961 15.3452 71.7338 16.2446 71.5058 17.3339ZM95.8124 29.3799C93.7478 29.3799 91.9871 28.9302 90.5304 28.0309C89.0738 27.1316 87.9591 25.9346 87.1864 24.4399C86.4264 22.9452 86.0464 21.3112 86.0464 19.5379C86.0464 17.7519 86.4264 16.1052 87.1864 14.5979C87.9591 13.0906 89.0738 11.8872 90.5304 10.9879C91.9871 10.0759 93.7478 9.61992 95.8124 9.61992C97.8771 9.61992 99.6378 10.0759 101.094 10.9879C102.551 11.8872 103.659 13.0906 104.419 14.5979C105.192 16.1052 105.578 17.7519 105.578 19.5379C105.578 21.3112 105.192 22.9452 104.419 24.4399C103.659 25.9346 102.551 27.1316 101.094 28.0309C99.6378 28.9302 97.8771 29.3799 95.8124 29.3799ZM95.8124 25.5039C97.3958 25.5039 98.6118 24.9529 99.4604 23.8509C100.322 22.7362 100.752 21.2986 100.752 19.5379C100.752 17.7519 100.322 16.3016 99.4604 15.1869C98.6118 14.0596 97.3958 13.4959 95.8124 13.4959C94.2418 13.4959 93.0258 14.0596 92.1644 15.1869C91.3031 16.3016 90.8724 17.7519 90.8724 19.5379C90.8724 21.2986 91.3031 22.7362 92.1644 23.8509C93.0258 24.9529 94.2418 25.5039 95.8124 25.5039Z" fill="url(#paint0_linear_2969_470)"/>
<path d="M115.983 29V2.4H124.381C126.763 2.4 128.631 2.93833 129.986 4.015C131.342 5.079 132.019 6.70667 132.019 8.898C132.019 10.38 131.696 11.6847 131.05 12.812C130.404 13.9393 129.435 14.674 128.143 15.016L128.675 14.408C130.525 14.712 131.956 15.453 132.969 16.631C133.983 17.7963 134.489 19.386 134.489 21.4C134.489 23.7307 133.736 25.58 132.228 26.948C130.734 28.316 128.663 29 126.015 29H115.983ZM119.593 25.732H125.711C127.181 25.732 128.352 25.3647 129.226 24.63C130.1 23.8953 130.537 22.7807 130.537 21.286C130.537 19.614 130.088 18.436 129.188 17.752C128.302 17.068 127.143 16.726 125.711 16.726H119.593V25.732ZM119.593 13.458H123.925C125.217 13.458 126.269 13.1983 127.079 12.679C127.89 12.1597 128.295 11.1147 128.295 9.544C128.295 7.986 127.89 6.94733 127.079 6.428C126.269 5.896 125.217 5.63 123.925 5.63H119.593V13.458ZM142.267 29.38C141.115 29.38 140.108 29.1457 139.246 28.677C138.385 28.2083 137.714 27.5687 137.232 26.758C136.764 25.9473 136.529 25.0227 136.529 23.984C136.529 22.9327 136.757 22.0333 137.213 21.286C137.682 20.526 138.303 19.899 139.075 19.405C139.861 18.8983 140.735 18.4993 141.697 18.208C142.66 17.904 143.654 17.6887 144.68 17.562C145.719 17.4227 146.713 17.3467 147.663 17.334C147.663 15.5607 147.315 14.4017 146.618 13.857C145.922 13.3123 144.915 13.04 143.597 13.04C142.901 13.04 142.153 13.1477 141.355 13.363C140.57 13.5783 139.683 14.028 138.695 14.712L138.201 11.938C138.949 11.368 139.88 10.9057 140.994 10.551C142.109 10.1837 143.281 10 144.509 10C146.08 10 147.347 10.2787 148.309 10.836C149.272 11.3807 149.975 12.3053 150.418 13.61C150.862 14.9147 151.083 16.688 151.083 18.93V22.73C151.083 23.6167 151.121 24.3513 151.197 24.934C151.286 25.504 151.476 25.9347 151.767 26.226C152.071 26.5047 152.553 26.644 153.211 26.644H153.553L153.021 29.38H152.755C151.653 29.38 150.798 29.2723 150.19 29.057C149.595 28.8417 149.139 28.5313 148.822 28.126C148.506 27.7207 148.221 27.2267 147.967 26.644C147.271 27.4547 146.447 28.1133 145.497 28.62C144.547 29.1267 143.471 29.38 142.267 29.38ZM142.913 26.644C143.825 26.644 144.706 26.416 145.554 25.96C146.416 25.504 147.119 24.896 147.663 24.136V19.69C145.852 19.7533 144.383 19.9307 143.255 20.222C142.141 20.5133 141.324 20.9503 140.804 21.533C140.285 22.1157 140.025 22.8693 140.025 23.794C140.025 24.7947 140.291 25.523 140.823 25.979C141.368 26.4223 142.065 26.644 142.913 26.644ZM156.193 29V10.38H158.853L159.537 13.952L158.207 13.382C159.461 11.9887 160.683 11.0767 161.874 10.646C163.077 10.2153 164.249 10 165.389 10C168.112 10 170.057 10.7853 171.222 12.356C172.4 13.9267 172.989 16.0547 172.989 18.74V29H169.569V18.74C169.569 16.764 169.202 15.32 168.467 14.408C167.732 13.496 166.478 13.04 164.705 13.04C163.451 13.04 162.298 13.3187 161.247 13.876C160.208 14.4207 159.524 15.2947 159.195 16.498L159.613 14.408V29H156.193ZM177.382 29V0.5H180.802V18.778L187.642 10.38H191.822L184.412 19.044L192.012 29H187.832L180.802 19.538V29H177.382Z" fill="#303030"/>
</g>
<defs>
<linearGradient id="paint0_linear_2969_470" x1="-1.00003" y1="-5.00008" x2="145.202" y2="100.954" gradientUnits="userSpaceOnUse">
<stop stop-color="#DD572D"/>
<stop offset="1" stop-color="#ECBD15"/>
</linearGradient>
<clipPath id="clip0_2969_470">
<rect width="193" height="30" fill="white"/>
</clipPath>
</defs>
</svg>
